<svg version="1.1" xmlns="http://www.w3.org/2000/svg" xmlns:xlink="http://www.w3.org/1999/xlink" width="940" height="643"><defs/><g><g transform="translate(-78,-38) scale(1,1)"><rect fill="#C0C0C0" stroke="none" x="335" y="135" width="247" height="495" opacity="0.2"/></g><g transform="translate(-78,-38) scale(1,1)"><rect fill="#ffffff" stroke="none" x="328" y="128" width="247" height="495"/></g><g transform="translate(-78,-38) scale(1,1)"><path fill="none" stroke="#000000" d="M 328 128 L 575 128 L 575 623 L 328 623 L 328 128 Z Z" stroke-miterlimit="10"/></g><g transform="translate(-78,-38) scale(1,1)"><g><path fill="none" stroke="none"/><text fill="#000000" stroke="none" font-family="Arial" font-size="13px" font-style="normal" font-weight="bold" text-decoration="none" x="352.175048828125" y="146">24k.id - Online Gold Transaction</text></g></g><g transform="translate(-78,-38) scale(1,1)"><path fill="#ffffff" stroke="none" d="M 116.24772922585228 329.68 C 116.24772922585228 324.886167936 120.13357155079774 321 124.927001953125 321 C 129.72043235545226 321 133.60627468039772 324.886167936 133.60627468039772 329.68 C 133.60627468039772 334.473832064 129.72043235545226 338.36 124.927001953125 338.36 C 120.13357155079774 338.36 116.24772922585228 334.473832064 116.24772922585228 329.68 Z"/></g><g transform="translate(-78,-38) scale(1,1)"><path fill="none" stroke="#000000" d="M 116.24772922585228 329.68 C 116.24772922585228 324.886167936 120.13357155079774 321 124.927001953125 321 C 129.72043235545226 321 133.60627468039772 324.886167936 133.60627468039772 329.68 C 133.60627468039772 334.473832064 129.72043235545226 338.36 124.927001953125 338.36 C 120.13357155079774 338.36 116.24772922585228 334.473832064 116.24772922585228 329.68 Z" stroke-miterlimit="10"/></g><g transform="translate(-78,-38) scale(1,1)"><path fill="none" stroke="#000000" d="M 124.927001953125 338.36 L 124.927001953125 355.64" stroke-miterlimit="10"/></g><g transform="translate(-78,-38) scale(1,1)"><path fill="none" stroke="#000000" d="M 115.73718377130683 344.84 L 134.11682013494317 344.84" stroke-miterlimit="10"/></g><g transform="translate(-78,-38) scale(1,1)"><path fill="none" stroke="#000000" d="M 124.927001953125 355.64 L 112.16336558948865 373" stroke-miterlimit="10"/></g><g transform="translate(-78,-38) scale(1,1)"><path fill="none" stroke="#000000" d="M 124.927001953125 355.64 L 137.69063831676135 373" stroke-miterlimit="10"/></g><g transform="translate(-78,-38) scale(1,1)"><g><path fill="none" stroke="none"/><text fill="#000000" stroke="none" font-family="Arial" font-size="13px" font-style="normal" font-weight="bold" text-decoration="none" x="111.323974609375" y="392">Web</text><text fill="#000000" stroke="none" font-family="Arial" font-size="13px" font-style="normal" font-weight="bold" text-decoration="none" x="94.58837890625" y="405">Customer</text></g></g><g transform="translate(-78,-38) scale(1,1)"><path fill="#ffffff" stroke="none" d="M 239.70402805397728 257.68 C 239.70402805397728 252.886167936 243.5898703789227 249 248.38330078125 249 C 253.1767311835773 249 257.06257350852275 252.886167936 257.06257350852275 257.68 C 257.06257350852275 262.473832064 253.1767311835773 266.36 248.38330078125 266.36 C 243.5898703789227 266.36 239.70402805397728 262.473832064 239.70402805397728 257.68 Z"/></g><g transform="translate(-78,-38) scale(1,1)"><path fill="none" stroke="#000000" d="M 239.70402805397728 257.68 C 239.70402805397728 252.886167936 243.5898703789227 249 248.38330078125 249 C 253.1767311835773 249 257.06257350852275 252.886167936 257.06257350852275 257.68 C 257.06257350852275 262.473832064 253.1767311835773 266.36 248.38330078125 266.36 C 243.5898703789227 266.36 239.70402805397728 262.473832064 239.70402805397728 257.68 Z" stroke-miterlimit="10"/></g><g transform="translate(-78,-38) scale(1,1)"><path fill="none" stroke="#000000" d="M 248.38330078125 266.36 L 248.38330078125 283.64" stroke-miterlimit="10"/></g><g transform="translate(-78,-38) scale(1,1)"><path fill="none" stroke="#000000" d="M 239.19348259943183 272.84 L 257.57311896306817 272.84" stroke-miterlimit="10"/></g><g transform="translate(-78,-38) scale(1,1)"><path fill="none" stroke="#000000" d="M 248.38330078125 283.64 L 235.61966441761365 301" stroke-miterlimit="10"/></g><g transform="translate(-78,-38) scale(1,1)"><path fill="none" stroke="#000000" d="M 248.38330078125 283.64 L 261.14693714488635 301" stroke-miterlimit="10"/></g><g transform="translate(-78,-38) scale(1,1)"><g><path fill="none" stroke="none"/><text fill="#000000" stroke="none" font-family="Arial" font-size="13px" font-style="normal" font-weight="bold" text-decoration="none" x="214.788330078125" y="320">Registered</text><text fill="#000000" stroke="none" font-family="Arial" font-size="13px" font-style="normal" font-weight="bold" text-decoration="none" x="218.044677734375" y="333">Customer</text></g></g><g transform="translate(-78,-38) scale(1,1)"><path fill="#ffffff" stroke="none" d="M 236.24772922585228 401.68 C 236.24772922585228 396.886167936 240.13357155079774 393 244.927001953125 393 C 249.72043235545226 393 253.60627468039772 396.886167936 253.60627468039772 401.68 C 253.60627468039772 406.473832064 249.72043235545226 410.36 244.927001953125 410.36 C 240.13357155079774 410.36 236.24772922585228 406.473832064 236.24772922585228 401.68 Z"/></g><g transform="translate(-78,-38) scale(1,1)"><path fill="none" stroke="#000000" d="M 236.24772922585228 401.68 C 236.24772922585228 396.886167936 240.13357155079774 393 244.927001953125 393 C 249.72043235545226 393 253.60627468039772 396.886167936 253.60627468039772 401.68 C 253.60627468039772 406.473832064 249.72043235545226 410.36 244.927001953125 410.36 C 240.13357155079774 410.36 236.24772922585228 406.473832064 236.24772922585228 401.68 Z" stroke-miterlimit="10"/></g><g transform="translate(-78,-38) scale(1,1)"><path fill="none" stroke="#000000" d="M 244.927001953125 410.36 L 244.927001953125 427.64" stroke-miterlimit="10"/></g><g transform="translate(-78,-38) scale(1,1)"><path fill="none" stroke="#000000" d="M 235.73718377130683 416.84 L 254.11682013494317 416.84" stroke-miterlimit="10"/></g><g transform="translate(-78,-38) scale(1,1)"><path fill="none" stroke="#000000" d="M 244.927001953125 427.64 L 232.16336558948865 445" stroke-miterlimit="10"/></g><g transform="translate(-78,-38) scale(1,1)"><path fill="none" stroke="#000000" d="M 244.927001953125 427.64 L 257.69063831676135 445" stroke-miterlimit="10"/></g><g transform="translate(-78,-38) scale(1,1)"><g><path fill="none" stroke="none"/><text fill="#000000" stroke="none" font-family="Arial" font-size="13px" font-style="normal" font-weight="bold" text-decoration="none" x="231.56201171875" y="464">New</text><text fill="#000000" stroke="none" font-family="Arial" font-size="13px" font-style="normal" font-weight="bold" text-decoration="none" x="214.58837890625" y="477">Customer</text></g></g><g transform="translate(-78,-38) scale(1,1)"><path fill="#ffffff" stroke="none" d="M 698.9636946022728 123.89 C 698.9636946022728 117.875618528 703.7850174869272 113 709.732421875 113 C 715.6798262630728 113 720.5011491477272 117.875618528 720.5011491477272 123.89 C 720.5011491477272 129.904381472 715.6798262630728 134.78 709.732421875 134.78 C 703.7850174869272 134.78 698.9636946022728 129.904381472 698.9636946022728 123.89 Z"/></g><g transform="translate(-78,-38) scale(1,1)"><path fill="none" stroke="#000000" d="M 698.9636946022728 123.89 C 698.9636946022728 117.875618528 703.7850174869272 113 709.732421875 113 C 715.6798262630728 113 720.5011491477272 117.875618528 720.5011491477272 123.89 C 720.5011491477272 129.904381472 715.6798262630728 134.78 709.732421875 134.78 C 703.7850174869272 134.78 698.9636946022728 129.904381472 698.9636946022728 123.89 Z" stroke-miterlimit="10"/></g><g transform="translate(-78,-38) scale(1,1)"><path fill="none" stroke="#000000" d="M 709.732421875 134.78 L 709.732421875 156.22" stroke-miterlimit="10"/></g><g transform="translate(-78,-38) scale(1,1)"><path fill="none" stroke="#000000" d="M 698.3302400568182 142.82 L 721.1346036931818 142.82" stroke-miterlimit="10"/></g><g transform="translate(-78,-38) scale(1,1)"><path fill="none" stroke="#000000" d="M 709.732421875 156.22 L 693.8960582386364 178" stroke-miterlimit="10"/></g><g transform="translate(-78,-38) scale(1,1)"><path fill="none" stroke="#000000" d="M 709.732421875 156.22 L 725.5687855113636 178" stroke-miterlimit="10"/></g><g transform="translate(-78,-38) scale(1,1)"><g><path fill="none" stroke="none"/><text fill="#000000" stroke="none" font-family="Arial" font-size="13px" font-style="normal" font-weight="bold" text-decoration="none" x="665.670166015625" y="197">Validation and</text><text fill="#000000" stroke="none" font-family="Arial" font-size="13px" font-style="normal" font-weight="bold" text-decoration="none" x="664.235595703125" y="210">Authentication</text></g></g><g transform="translate(-78,-38) scale(1,1)"><path fill="#ffffff" stroke="none" d="M 703.9535397727273 249.68 C 703.9535397727273 244.886167936 707.8393820976727 241 712.6328125 241 C 717.4262429023273 241 721.3120852272727 244.886167936 721.3120852272727 249.68 C 721.3120852272727 254.47383206400002 717.4262429023273 258.36 712.6328125 258.36 C 707.8393820976727 258.36 703.9535397727273 254.47383206400002 703.9535397727273 249.68 Z"/></g><g transform="translate(-78,-38) scale(1,1)"><path fill="none" stroke="#000000" d="M 703.9535397727273 249.68 C 703.9535397727273 244.886167936 707.8393820976727 241 712.6328125 241 C 717.4262429023273 241 721.3120852272727 244.886167936 721.3120852272727 249.68 C 721.3120852272727 254.47383206400002 717.4262429023273 258.36 712.6328125 258.36 C 707.8393820976727 258.36 703.9535397727273 254.47383206400002 703.9535397727273 249.68 Z" stroke-miterlimit="10"/></g><g transform="translate(-78,-38) scale(1,1)"><path fill="none" stroke="#000000" d="M 712.6328125 258.36 L 712.6328125 275.64" stroke-miterlimit="10"/></g><g transform="translate(-78,-38) scale(1,1)"><path fill="none" stroke="#000000" d="M 703.4429943181818 264.84 L 721.8226306818182 264.84" stroke-miterlimit="10"/></g><g transform="translate(-78,-38) scale(1,1)"><path fill="none" stroke="#000000" d="M 712.6328125 275.64 L 699.8691761363636 293" stroke-miterlimit="10"/></g><g transform="translate(-78,-38) scale(1,1)"><path fill="none" stroke="#000000" d="M 712.6328125 275.64 L 725.3964488636364 293" stroke-miterlimit="10"/></g><g transform="translate(-78,-38) scale(1,1)"><g><path fill="none" stroke="none"/><text fill="#000000" stroke="none" font-family="Arial" font-size="13px" font-style="normal" font-weight="bold" text-decoration="none" x="689.52099609375" y="312">Identity</text><text fill="#000000" stroke="none" font-family="Arial" font-size="13px" font-style="normal" font-weight="bold" text-decoration="none" x="686.261474609375" y="325">Provider</text></g></g><g transform="translate(-78,-38) scale(1,1)"><path fill="#ffffff" stroke="none" d="M 704.3038815696023 401.68 C 704.3038815696023 396.886167936 708.1897238945477 393 712.983154296875 393 C 717.7765846992023 393 721.6624270241477 396.886167936 721.6624270241477 401.68 C 721.6624270241477 406.473832064 717.7765846992023 410.36 712.983154296875 410.36 C 708.1897238945477 410.36 704.3038815696023 406.473832064 704.3038815696023 401.68 Z"/></g><g transform="translate(-78,-38) scale(1,1)"><path fill="none" stroke="#000000" d="M 704.3038815696023 401.68 C 704.3038815696023 396.886167936 708.1897238945477 393 712.983154296875 393 C 717.7765846992023 393 721.6624270241477 396.886167936 721.6624270241477 401.68 C 721.6624270241477 406.473832064 717.7765846992023 410.36 712.983154296875 410.36 C 708.1897238945477 410.36 704.3038815696023 406.473832064 704.3038815696023 401.68 Z" stroke-miterlimit="10"/></g><g transform="translate(-78,-38) scale(1,1)"><path fill="none" stroke="#000000" d="M 712.983154296875 410.36 L 712.983154296875 427.64" stroke-miterlimit="10"/></g><g transform="translate(-78,-38) scale(1,1)"><path fill="none" stroke="#000000" d="M 703.7933361150568 416.84 L 722.1729724786932 416.84" stroke-miterlimit="10"/></g><g transform="translate(-78,-38) scale(1,1)"><path fill="none" stroke="#000000" d="M 712.983154296875 427.64 L 700.2195179332386 445" stroke-miterlimit="10"/></g><g transform="translate(-78,-38) scale(1,1)"><path fill="none" stroke="#000000" d="M 712.983154296875 427.64 L 725.7467906605114 445" stroke-miterlimit="10"/></g><g transform="translate(-78,-38) scale(1,1)"><g><path fill="none" stroke="none"/><text fill="#000000" stroke="none" font-family="Arial" font-size="13px" font-style="normal" font-weight="bold" text-decoration="none" x="697.088623046875" y="464">Bank</text><text fill="#000000" stroke="none" font-family="Arial" font-size="13px" font-style="normal" font-weight="bold" text-decoration="none" x="687.332275390625" y="477">Transfer</text><text fill="#000000" stroke="none" font-family="Arial" font-size="13px" font-style="normal" font-weight="bold" text-decoration="none" x="676.5" y="490">Transaction</text></g></g><g transform="translate(-78,-38) scale(1,1)"><path fill="none" stroke="#000000" d="M 207 416 L 163 389" stroke-miterlimit="10"/></g><g transform="translate(-78,-38) scale(1,1)"><path fill="#FFFFFF" stroke="none" d="M 184.7270496583465 392.454752255046 L 163 389 L 175.92046540173115 406.8062228954562"/></g><g transform="translate(-78,-38) scale(1,1)"><path fill="none" stroke="#000000" d="M 184.7270496583465 392.454752255046 L 163 389 L 175.92046540173115 406.8062228954562 L 184.7270496583465 392.454752255046" stroke-miterlimit="10"/></g><g transform="translate(-78,-38) scale(1,1)"><path fill="none" stroke="#000000" d="M 207 318 L 163 343" stroke-miterlimit="10"/></g><g transform="translate(-78,-38) scale(1,1)"><path fill="#FFFFFF" stroke="none" d="M 176.5129258452814 325.63910039485495 L 163 343 L 184.83109133716636 340.27907166057247"/></g><g transform="translate(-78,-38) scale(1,1)"><path fill="none" stroke="#000000" d="M 176.5129258452814 325.63910039485495 L 163 343 L 184.83109133716636 340.27907166057247 L 176.5129258452814 325.63910039485495" stroke-miterlimit="10"/></g><g transform="translate(-78,-38) scale(1,1)"><path fill="#C0C0C0" stroke="none" d="M 383 225 C 383 210.6405952 414.340064 199 453 199 C 491.659936 199 523 210.6405952 523 225 C 523 239.3594048 491.659936 251 453 251 C 414.340064 251 383 239.3594048 383 225 Z" opacity="0.2"/></g><g transform="translate(-78,-38) scale(1,1)"><path fill="#ffffff" stroke="none" d="M 376 218 C 376 203.6405952 407.340064 192 446 192 C 484.659936 192 516 203.6405952 516 218 C 516 232.3594048 484.659936 244 446 244 C 407.340064 244 376 232.3594048 376 218 Z"/></g><g transform="translate(-78,-38) scale(1,1)"><path fill="none" stroke="#000000" d="M 376 218 C 376 203.6405952 407.340064 192 446 192 C 484.659936 192 516 203.6405952 516 218 C 516 232.3594048 484.659936 244 446 244 C 407.340064 244 376 232.3594048 376 218 Z" stroke-miterlimit="10"/></g><g transform="translate(-78,-38) scale(1,1)"><g><path fill="none" stroke="none"/><text fill="#000000" stroke="none" font-family="Arial" font-size="13px" font-style="normal" font-weight="bold" text-decoration="none" x="412.519287109375" y="217">View Items</text><text fill="#000000" stroke="none" font-family="Arial" font-size="13px" font-style="normal" font-weight="bold" text-decoration="none" x="417.8291015625" y="230">Products</text></g></g><g transform="translate(-78,-38) scale(1,1)"><path fill="#C0C0C0" stroke="none" d="M 383 337 C 383 322.6405952 424.1897984 311 475 311 C 525.8102016 311 567 322.6405952 567 337 C 567 351.3594048 525.8102016 363 475 363 C 424.1897984 363 383 351.3594048 383 337 Z" opacity="0.2"/></g><g transform="translate(-78,-38) scale(1,1)"><path fill="#ffffff" stroke="none" d="M 376 330 C 376 315.6405952 417.1897984 304 468 304 C 518.8102016 304 560 315.6405952 560 330 C 560 344.3594048 518.8102016 356 468 356 C 417.1897984 356 376 344.3594048 376 330 Z"/></g><g transform="translate(-78,-38) scale(1,1)"><path fill="none" stroke="#000000" d="M 376 330 C 376 315.6405952 417.1897984 304 468 304 C 518.8102016 304 560 315.6405952 560 330 C 560 344.3594048 518.8102016 356 468 356 C 417.1897984 356 376 344.3594048 376 330 Z" stroke-miterlimit="10"/></g><g transform="translate(-78,-38) scale(1,1)"><g><path fill="none" stroke="none"/><text fill="#000000" stroke="none" font-family="Arial" font-size="13px" font-style="normal" font-weight="bold" text-decoration="none" x="413.451416015625" y="329">Make Transaction</text><text fill="#000000" stroke="none" font-family="Arial" font-size="13px" font-style="normal" font-weight="bold" text-decoration="none" x="437.667724609375" y="342">or Buying</text></g></g><g transform="translate(-78,-38) scale(1,1)"><path fill="#C0C0C0" stroke="none" d="M 391 479 C 391 465.7451648 421.4446336 455 459 455 C 496.5553664 455 527 465.7451648 527 479 C 527 492.2548352 496.5553664 503 459 503 C 421.4446336 503 391 492.2548352 391 479 Z" opacity="0.2"/></g><g transform="translate(-78,-38) scale(1,1)"><path fill="#ffffff" stroke="none" d="M 384 472 C 384 458.7451648 414.4446336 448 452 448 C 489.5553664 448 520 458.7451648 520 472 C 520 485.2548352 489.5553664 496 452 496 C 414.4446336 496 384 485.2548352 384 472 Z"/></g><g transform="translate(-78,-38) scale(1,1)"><path fill="none" stroke="#000000" d="M 384 472 C 384 458.7451648 414.4446336 448 452 448 C 489.5553664 448 520 458.7451648 520 472 C 520 485.2548352 489.5553664 496 452 496 C 414.4446336 496 384 485.2548352 384 472 Z" stroke-miterlimit="10"/></g><g transform="translate(-78,-38) scale(1,1)"><g><path fill="none" stroke="none"/><text fill="#000000" stroke="none" font-family="Arial" font-size="13px" font-style="normal" font-weight="bold" text-decoration="none" x="427.091796875" y="477.5">Log Out</text></g></g><g transform="translate(-78,-38) scale(1,1)"><path fill="#C0C0C0" stroke="none" d="M 391 553 C 391 538.6405952 421.4446336 527 459 527 C 496.5553664 527 527 538.6405952 527 553 C 527 567.3594048 496.5553664 579 459 579 C 421.4446336 579 391 567.3594048 391 553 Z" opacity="0.2"/></g><g transform="translate(-78,-38) scale(1,1)"><path fill="#ffffff" stroke="none" d="M 384 546 C 384 531.6405952 414.4446336 520 452 520 C 489.5553664 520 520 531.6405952 520 546 C 520 560.3594048 489.5553664 572 452 572 C 414.4446336 572 384 560.3594048 384 546 Z"/></g><g transform="translate(-78,-38) scale(1,1)"><path fill="none" stroke="#000000" d="M 384 546 C 384 531.6405952 414.4446336 520 452 520 C 489.5553664 520 520 531.6405952 520 546 C 520 560.3594048 489.5553664 572 452 572 C 414.4446336 572 384 560.3594048 384 546 Z" stroke-miterlimit="10"/></g><g transform="translate(-78,-38) scale(1,1)"><g><path fill="none" stroke="none"/><text fill="#000000" stroke="none" font-family="Arial" font-size="13px" font-style="normal" font-weight="bold" text-decoration="none" x="433.944091796875" y="545">Client</text><text fill="#000000" stroke="none" font-family="Arial" font-size="13px" font-style="normal" font-weight="bold" text-decoration="none" x="425.990478515625" y="558">Register</text></g></g><g transform="translate(-78,-38) scale(1,1)"><path fill="none" stroke="#000000" d="M 290 278 L 376 245" stroke-miterlimit="10"/></g><g transform="translate(-78,-38) scale(1,1)"><path fill="none" stroke="#000000" d="M 290 301 L 375 315" stroke-miterlimit="10"/></g><g transform="translate(-78,-38) scale(1,1)"><path fill="none" stroke="#000000" d="M 283 396 L 421 245" stroke-miterlimit="10"/></g><g transform="translate(-78,-38) scale(1,1)"><path fill="none" stroke="#000000" d="M 283 458 L 400 519" stroke-miterlimit="10"/></g><g transform="translate(-78,-38) scale(1,1)"><path fill="none" stroke="#000000" d="M 655 175 L 517 203" stroke-miterlimit="10"/></g><g transform="translate(-78,-38) scale(1,1)"><path fill="none" stroke="#000000" d="M 664 218 L 473 447" stroke-miterlimit="10"/></g><g transform="translate(-78,-38) scale(1,1)"><path fill="none" stroke="#000000" d="M 737 218 Q 912 552 521 547" stroke-miterlimit="10"/></g><g transform="translate(-78,-38) scale(1,1)"><path fill="none" stroke="#000000" d="M 679 278 L 517 236" stroke-miterlimit="10"/></g><g transform="translate(-78,-38) scale(1,1)"><path fill="none" stroke="#000000" d="M 679 310 L 487 447" stroke-miterlimit="10"/></g><g transform="translate(-78,-38) scale(1,1)"><path fill="none" stroke="#000000" d="M 671 448 L 521 465" stroke-miterlimit="10"/></g><g transform="translate(-78,-38) scale(1,1)"><path fill="none" stroke="#000000" d="M 463 303 L 451 245" stroke-miterlimit="10" stroke-dasharray="3"/></g><g transform="translate(-78,-38) scale(1,1)"><path fill="none" stroke="#000000" d="M 457.18122900182874 254.09903335673363 L 451 245 L 448.9368007544711 255.804777132049" stroke-miterlimit="10"/></g><g transform="translate(-78,-38) scale(1,1)"><g><path fill="none" stroke="none"/><text fill="#000000" stroke="none" font-family="Arial" font-size="13px" font-style="normal" font-weight="normal" text-decoration="none" x="459.51434326171875" y="271">«include»</text></g></g><g transform="translate(-78,-38) scale(1,1)"><path fill="none" stroke="#000000" d="M 465 357 L 455 447" stroke-miterlimit="10" stroke-dasharray="3"/></g><g transform="translate(-78,-38) scale(1,1)"><path fill="none" stroke="#000000" d="M 451.93850846500584 436.4346192883948 L 455 447 L 460.306050922054 437.36434622806684" stroke-miterlimit="10"/></g><g transform="translate(-78,-38) scale(1,1)"><g><path fill="none" stroke="none"/><text fill="#000000" stroke="none" font-family="Arial" font-size="13px" font-style="normal" font-weight="normal" text-decoration="none" x="463.51434326171875" y="390">«include»</text></g></g><g transform="translate(-78,-38) scale(1,1)"><g><path fill="none" stroke="none"/><text fill="#000000" stroke="none" font-family="Arial" font-size="20px" font-style="normal" font-weight="normal" text-decoration="none" x="101" y="68">24k.id - GENERAL GOLD TRANSACTION USE CASE MODEL (TYPE: UML USE CASE DIAGRAM)</text></g></g><g transform="translate(-78,-38) scale(1,1)"><rect fill="#ffffff" stroke="none" x="328" y="640" width="127" height="31"/></g><g transform="translate(-78,-38) scale(1,1)"><path fill="none" stroke="#000000" d="M 328 640 L 455 640 L 455 671 L 328 671 L 328 640 Z Z" stroke-miterlimit="10"/></g><g transform="translate(-78,-38) scale(1,1)"><path fill="none" stroke="#000000" d="M 360.39453125 640 L 360.39453125 671" stroke-miterlimit="10"/></g><g transform="translate(-78,-38) scale(1,1)"><g><path fill="none" stroke="none"/><text fill="#000000" stroke="none" font-family="Arial" font-size="13px" font-style="normal" font-weight="normal" text-decoration="none" x="364.89453125" y="656">https://24k.id/</text></g></g><g transform="translate(-78,-38) scale(1,1)"><g><path fill="none" stroke="none"/><text fill="#000000" stroke="none" font-family="Arial" font-size="13px" font-style="normal" font-weight="bold" text-decoration="none" x="333" y="656">link</text></g></g></g></svg>