<svg version="1.1" xmlns="http://www.w3.org/2000/svg" xmlns:xlink="http://www.w3.org/1999/xlink" width="748" height="723"><defs/><g><g transform="translate(-78,-38) scale(1,1)"><path fill="none" stroke="#000000" d="M 88 141 L 747 141 L 747 712 L 88 712 L 88 141" stroke-miterlimit="10"/></g><g transform="translate(-78,-38) scale(1,1)"><path fill="#ffffff" stroke="none" d="M 88 141 L 88 163 L 279.59521484375 163 L 290.59521484375 152 L 290.59521484375 141 L 88 141"/></g><g transform="translate(-78,-38) scale(1,1)"><path fill="none" stroke="#000000" d="M 88 141 L 88 163 L 279.59521484375 163 L 290.59521484375 152 L 290.59521484375 141 L 88 141 L 88 141" stroke-miterlimit="10"/></g><g transform="translate(-78,-38) scale(1,1)"><g><path fill="none" stroke="none"/><text fill="#000000" stroke="none" font-family="Arial" font-size="13px" font-style="normal" font-weight="normal" text-decoration="none" x="112.72998046875" y="157">24k.id Online Gold Payment</text></g></g><g transform="translate(-78,-38) scale(1,1)"><g><path fill="none" stroke="none"/><text fill="#000000" stroke="none" font-family="Arial" font-size="13px" font-style="normal" font-weight="bold" text-decoration="none" x="92.279541015625" y="157">sd</text></g></g><g transform="translate(-78,-38) scale(1,1)"><path fill="#ffffff" stroke="none" d="M 139.96915252130682 363.21000000000004 C 139.96915252130682 357.571172192 144.50263523374318 353 150.094970703125 353 C 155.68730617250682 353 160.2207888849432 357.571172192 160.2207888849432 363.21000000000004 C 160.2207888849432 368.84882780800007 155.68730617250682 373.42 150.094970703125 373.42 C 144.50263523374318 373.42 139.96915252130682 368.84882780800007 139.96915252130682 363.21000000000004 Z"/></g><g transform="translate(-78,-38) scale(1,1)"><path fill="none" stroke="#000000" d="M 139.96915252130682 363.21000000000004 C 139.96915252130682 357.571172192 144.50263523374318 353 150.094970703125 353 C 155.68730617250682 353 160.2207888849432 357.571172192 160.2207888849432 363.21000000000004 C 160.2207888849432 368.84882780800007 155.68730617250682 373.42 150.094970703125 373.42 C 144.50263523374318 373.42 139.96915252130682 368.84882780800007 139.96915252130682 363.21000000000004 Z" stroke-miterlimit="10"/></g><g transform="translate(-78,-38) scale(1,1)"><path fill="none" stroke="#000000" d="M 150.094970703125 373.42 L 150.094970703125 393.58" stroke-miterlimit="10"/></g><g transform="translate(-78,-38) scale(1,1)"><path fill="none" stroke="#000000" d="M 139.37351615767048 380.98 L 160.81642524857955 380.98" stroke-miterlimit="10"/></g><g transform="translate(-78,-38) scale(1,1)"><path fill="none" stroke="#000000" d="M 150.094970703125 393.58 L 135.20406161221592 414" stroke-miterlimit="10"/></g><g transform="translate(-78,-38) scale(1,1)"><path fill="none" stroke="#000000" d="M 150.094970703125 393.58 L 164.9858797940341 414" stroke-miterlimit="10"/></g><g transform="translate(-78,-38) scale(1,1)"><g><path fill="none" stroke="none"/><text fill="#000000" stroke="none" font-family="Arial" font-size="13px" font-style="normal" font-weight="normal" text-decoration="none" x="150.094970703125" y="426"></text></g></g><g transform="translate(-78,-38) scale(1,1)"><g><path fill="none" stroke="none"/><text fill="#000000" stroke="none" font-family="Arial" font-size="13px" font-style="normal" font-weight="bold" text-decoration="none" x="116.5" y="446">Registered</text><text fill="#000000" stroke="none" font-family="Arial" font-size="13px" font-style="normal" font-weight="bold" text-decoration="none" x="135.641357421875" y="459">User</text></g></g><g transform="translate(-78,-38) scale(1,1)"><rect fill="#C0C0C0" stroke="none" x="399" y="191" width="135.6103515625" height="48" opacity="0.2"/></g><g transform="translate(-78,-38) scale(1,1)"><rect fill="#ffffff" stroke="none" x="392" y="184" width="135.6103515625" height="48"/></g><g transform="translate(-78,-38) scale(1,1)"><path fill="none" stroke="#000000" d="M 392 184 L 527.6103515625 184 L 527.6103515625 232 L 392 232 L 392 184 Z Z" stroke-miterlimit="10"/></g><g transform="translate(-78,-38) scale(1,1)"><rect fill="#ffffff" stroke="none" x="392" y="184" width="135.6103515625" height="48"/></g><g transform="translate(-78,-38) scale(1,1)"><path fill="none" stroke="#000000" d="M 392 184 L 527.6103515625 184 L 527.6103515625 232 L 392 232 L 392 184 Z Z" stroke-miterlimit="10"/></g><g transform="translate(-78,-38) scale(1,1)"><g><path fill="none" stroke="none"/><text fill="#000000" stroke="none" font-family="Arial" font-size="13px" font-style="normal" font-weight="bold" text-decoration="none" x="429.23486328125" y="202">:goldType</text></g></g><g transform="translate(-78,-38) scale(1,1)"><rect fill="#C0C0C0" stroke="none" x="319" y="391" width="128" height="48" opacity="0.2"/></g><g transform="translate(-78,-38) scale(1,1)"><rect fill="#ffffff" stroke="none" x="312" y="384" width="128" height="48"/></g><g transform="translate(-78,-38) scale(1,1)"><path fill="none" stroke="#000000" d="M 312 384 L 440 384 L 440 432 L 312 432 L 312 384 Z Z" stroke-miterlimit="10"/></g><g transform="translate(-78,-38) scale(1,1)"><rect fill="#ffffff" stroke="none" x="312" y="384" width="128" height="48"/></g><g transform="translate(-78,-38) scale(1,1)"><path fill="none" stroke="#000000" d="M 312 384 L 440 384 L 440 432 L 312 432 L 312 384 Z Z" stroke-miterlimit="10"/></g><g transform="translate(-78,-38) scale(1,1)"><g><path fill="none" stroke="none"/><text fill="#000000" stroke="none" font-family="Arial" font-size="13px" font-style="normal" font-weight="bold" text-decoration="none" x="318.9345703125" y="402">24k.id Online Gold</text><text fill="#000000" stroke="none" font-family="Arial" font-size="13px" font-style="normal" font-weight="bold" text-decoration="none" x="339.516845703125" y="415">Transaction</text></g></g><g transform="translate(-78,-38) scale(1,1)"><rect fill="#C0C0C0" stroke="none" x="391" y="647" width="128" height="48" opacity="0.2"/></g><g transform="translate(-78,-38) scale(1,1)"><rect fill="#ffffff" stroke="none" x="384" y="640" width="128" height="48"/></g><g transform="translate(-78,-38) scale(1,1)"><path fill="none" stroke="#000000" d="M 384 640 L 512 640 L 512 688 L 384 688 L 384 640 Z Z" stroke-miterlimit="10"/></g><g transform="translate(-78,-38) scale(1,1)"><rect fill="#ffffff" stroke="none" x="384" y="640" width="128" height="48"/></g><g transform="translate(-78,-38) scale(1,1)"><path fill="none" stroke="#000000" d="M 384 640 L 512 640 L 512 688 L 384 688 L 384 640 Z Z" stroke-miterlimit="10"/></g><g transform="translate(-78,-38) scale(1,1)"><g><path fill="none" stroke="none"/><text fill="#000000" stroke="none" font-family="Arial" font-size="13px" font-style="normal" font-weight="bold" text-decoration="none" x="426.3291015625" y="658">: Order</text></g></g><g transform="translate(-78,-38) scale(1,1)"><rect fill="#C0C0C0" stroke="none" x="599" y="383" width="128" height="48" opacity="0.2"/></g><g transform="translate(-78,-38) scale(1,1)"><rect fill="#ffffff" stroke="none" x="592" y="376" width="128" height="48"/></g><g transform="translate(-78,-38) scale(1,1)"><path fill="none" stroke="#000000" d="M 592 376 L 720 376 L 720 424 L 592 424 L 592 376 Z Z" stroke-miterlimit="10"/></g><g transform="translate(-78,-38) scale(1,1)"><rect fill="#ffffff" stroke="none" x="592" y="376" width="128" height="48"/></g><g transform="translate(-78,-38) scale(1,1)"><path fill="none" stroke="#000000" d="M 592 376 L 720 376 L 720 424 L 592 424 L 592 376 Z Z" stroke-miterlimit="10"/></g><g transform="translate(-78,-38) scale(1,1)"><g><path fill="none" stroke="none"/><text fill="#000000" stroke="none" font-family="Arial" font-size="13px" font-style="normal" font-weight="bold" text-decoration="none" x="614.825927734375" y="394">visualization:</text><text fill="#000000" stroke="none" font-family="Arial" font-size="13px" font-style="normal" font-weight="bold" text-decoration="none" x="610.84912109375" y="407">Graph_History</text></g></g><g transform="translate(-78,-38) scale(1,1)"><rect fill="#C0C0C0" stroke="none" x="599" y="559" width="128" height="48" opacity="0.2"/></g><g transform="translate(-78,-38) scale(1,1)"><rect fill="#ffffff" stroke="none" x="592" y="552" width="128" height="48"/></g><g transform="translate(-78,-38) scale(1,1)"><path fill="none" stroke="#000000" d="M 592 552 L 720 552 L 720 600 L 592 600 L 592 552 Z Z" stroke-miterlimit="10"/></g><g transform="translate(-78,-38) scale(1,1)"><rect fill="#ffffff" stroke="none" x="592" y="552" width="128" height="48"/></g><g transform="translate(-78,-38) scale(1,1)"><path fill="none" stroke="#000000" d="M 592 552 L 720 552 L 720 600 L 592 600 L 592 552 Z Z" stroke-miterlimit="10"/></g><g transform="translate(-78,-38) scale(1,1)"><g><path fill="none" stroke="none"/><text fill="#000000" stroke="none" font-family="Arial" font-size="13px" font-style="normal" font-weight="bold" text-decoration="none" x="601.4609375" y="570">[user]: Order Cart</text></g></g><g transform="translate(-78,-38) scale(1,1)"><path fill="none" stroke="#000000" d="M 197 409 L 311 408" stroke-miterlimit="10"/></g><g transform="translate(-78,-38) scale(1,1)"><path fill="none" stroke="#000000" d="M 266 389 L 226 389" stroke-miterlimit="10"/></g><g transform="translate(-78,-38) scale(1,1)"><path fill="#000000" stroke="none" d="M 254 393 L 266 389 L 254 384"/></g><g transform="translate(-78,-38) scale(1,1)"><g><path fill="none" stroke="none"/><text fill="#000000" stroke="none" font-family="Arial" font-size="13px" font-style="normal" font-weight="normal" text-decoration="none" x="198.1064453125" y="375">1 *[*] : find_gold</text></g></g><g transform="translate(-78,-38) scale(1,1)"><path fill="none" stroke="#000000" d="M 386 383 L 449 233" stroke-miterlimit="10"/></g><g transform="translate(-78,-38) scale(1,1)"><path fill="none" stroke="#000000" d="M 415 286 L 400 322" stroke-miterlimit="10"/></g><g transform="translate(-78,-38) scale(1,1)"><path fill="#000000" stroke="none" d="M 414 297 L 415 286 L 406 294"/></g><g transform="translate(-78,-38) scale(1,1)"><g><path fill="none" stroke="none"/><text fill="#000000" stroke="none" font-family="Arial" font-size="13px" font-style="normal" font-weight="normal" text-decoration="none" x="326.628662109375" y="305">2 : search()</text></g></g><g transform="translate(-78,-38) scale(1,1)"><path fill="none" stroke="#000000" d="M 441 406 L 591 402" stroke-miterlimit="10"/></g><g transform="translate(-78,-38) scale(1,1)"><path fill="none" stroke="#000000" d="M 535 394 L 496 395" stroke-miterlimit="10"/></g><g transform="translate(-78,-38) scale(1,1)"><path fill="#000000" stroke="none" d="M 524 398 L 535 394 L 523 389"/></g><g transform="translate(-78,-38) scale(1,1)"><g><path fill="none" stroke="none"/><text fill="#000000" stroke="none" font-family="Arial" font-size="13px" font-style="normal" font-weight="normal" text-decoration="none" x="409.327880859375" y="361.5">3 [interested] : view_gold_selection</text></g></g><g transform="translate(-78,-38) scale(1,1)"><path fill="none" stroke="#000000" d="M 418 433 L 614 551" stroke-miterlimit="10"/></g><g transform="translate(-78,-38) scale(1,1)"><path fill="none" stroke="#000000" d="M 554 483 L 520 463" stroke-miterlimit="10"/></g><g transform="translate(-78,-38) scale(1,1)"><path fill="#000000" stroke="none" d="M 542 481 L 554 483 L 546 473"/></g><g transform="translate(-78,-38) scale(1,1)"><g><path fill="none" stroke="none"/><text fill="#000000" stroke="none" font-family="Arial" font-size="13px" font-style="normal" font-weight="normal" text-decoration="none" x="478.607421875" y="450">4 [decided to buy] : add_to_cart()</text></g></g><g transform="translate(-78,-38) scale(1,1)"><path fill="none" stroke="#000000" d="M 383 433 L 441 639" stroke-miterlimit="10"/></g><g transform="translate(-78,-38) scale(1,1)"><path fill="none" stroke="#000000" d="M 401 560 L 391 522" stroke-miterlimit="10"/></g><g transform="translate(-78,-38) scale(1,1)"><path fill="#000000" stroke="none" d="M 393 550 L 401 560 L 402 548"/></g><g transform="translate(-78,-38) scale(1,1)"><g><path fill="none" stroke="none"/><text fill="#000000" stroke="none" font-family="Arial" font-size="13px" font-style="normal" font-weight="normal" text-decoration="none" x="189.830078125" y="550">5 [not empty(cart)] : make_order()</text></g></g><g transform="translate(-78,-38) scale(1,1)"><path fill="none" stroke="#000000" d="M 260 429 L 220 429" stroke-miterlimit="10"/></g><g transform="translate(-78,-38) scale(1,1)"><path fill="#000000" stroke="none" d="M 248 433 L 260 429 L 248 424"/></g><g transform="translate(-78,-38) scale(1,1)"><g><path fill="none" stroke="none"/><text fill="#000000" stroke="none" font-family="Arial" font-size="13px" font-style="normal" font-weight="normal" text-decoration="none" x="208.004150390625" y="446">6 : finish_order</text></g></g><g transform="translate(-78,-38) scale(1,1)"><path fill="none" stroke="#000000" d="M 513 514 L 479 494" stroke-miterlimit="10"/></g><g transform="translate(-78,-38) scale(1,1)"><path fill="#000000" stroke="none" d="M 501 512 L 513 514 L 505 504"/></g><g transform="translate(-78,-38) scale(1,1)"><g><path fill="none" stroke="none"/><text fill="#000000" stroke="none" font-family="Arial" font-size="13px" font-style="normal" font-weight="normal" text-decoration="none" x="451.02734375" y="529">7 : get_gold</text></g></g><g transform="translate(-78,-38) scale(1,1)"><path fill="none" stroke="#000000" d="M 447 281 L 432 317" stroke-miterlimit="10"/></g><g transform="translate(-78,-38) scale(1,1)"><path fill="#000000" stroke="none" d="M 446 292 L 447 281 L 438 289"/></g><g transform="translate(-78,-38) scale(1,1)"><g><path fill="none" stroke="none"/><text fill="#000000" stroke="none" font-family="Arial" font-size="13px" font-style="normal" font-weight="normal" text-decoration="none" x="452.32470703125" y="299">8 [order complete] : update_cart_record</text></g></g><g transform="translate(-78,-38) scale(1,1)"><g><path fill="none" stroke="none"/><text fill="#000000" stroke="none" font-family="Arial" font-size="20px" font-style="normal" font-weight="normal" text-decoration="none" x="93" y="68">24k.id - ONLINE GOLD PAYMENT (TYPE: UML COMMUNICATION DIAGRAM)</text></g></g><g transform="translate(-78,-38) scale(1,1)"><rect fill="#ffffff" stroke="none" x="96" y="720" width="127" height="31"/></g><g transform="translate(-78,-38) scale(1,1)"><path fill="none" stroke="#000000" d="M 96 720 L 223 720 L 223 751 L 96 751 L 96 720 Z Z" stroke-miterlimit="10"/></g><g transform="translate(-78,-38) scale(1,1)"><path fill="none" stroke="#000000" d="M 128.39453125 720 L 128.39453125 751" stroke-miterlimit="10"/></g><g transform="translate(-78,-38) scale(1,1)"><g><path fill="none" stroke="none"/><text fill="#000000" stroke="none" font-family="Arial" font-size="13px" font-style="normal" font-weight="normal" text-decoration="none" x="132.89453125" y="736">https://24k.id/</text></g></g><g transform="translate(-78,-38) scale(1,1)"><g><path fill="none" stroke="none"/><text fill="#000000" stroke="none" font-family="Arial" font-size="13px" font-style="normal" font-weight="bold" text-decoration="none" x="101" y="736">link</text></g></g></g></svg>