<svg version="1.1" xmlns="http://www.w3.org/2000/svg" xmlns:xlink="http://www.w3.org/1999/xlink" width="1148" height="1027"><defs/><g><g transform="translate(-118,-54) scale(1,1)"><rect fill="#C0C0C0" stroke="none" x="247" y="151" width="217.60000000000002" height="15" opacity="0.2"/></g><g transform="translate(-118,-54) scale(1,1)"><rect fill="#C0C0C0" stroke="none" x="247" y="165" width="544" height="97" opacity="0.2"/></g><g transform="translate(-118,-54) scale(1,1)"><rect fill="#ffffff" stroke="none" x="240" y="159" width="544" height="96"/></g><g transform="translate(-118,-54) scale(1,1)"><path fill="none" stroke="#000000" d="M 240 159 L 784 159 L 784 255 L 240 255 L 240 159 Z Z" stroke-miterlimit="10"/></g><g transform="translate(-118,-54) scale(1,1)"><rect fill="#ffffff" stroke="none" x="240" y="144" width="217.60000000000002" height="15"/></g><g transform="translate(-118,-54) scale(1,1)"><path fill="none" stroke="#000000" d="M 240 144 L 457.6 144 L 457.6 159 L 240 159 L 240 144 Z Z" stroke-miterlimit="10"/></g><g transform="translate(-118,-54) scale(1,1)"><rect fill="#ffffff" stroke="none" x="240" y="158" width="544" height="97"/></g><g transform="translate(-118,-54) scale(1,1)"><path fill="none" stroke="#000000" d="M 240 158 L 784 158 L 784 255 L 240 255 L 240 158 Z Z" stroke-miterlimit="10"/></g><g transform="translate(-118,-54) scale(1,1)"><g><path fill="none" stroke="none"/><text fill="#000000" stroke="none" font-family="Arial" font-size="13px" font-style="normal" font-weight="bold" text-decoration="none" x="479.12548828125" y="177">web 24k.id</text></g></g><g transform="translate(-118,-54) scale(1,1)"><rect fill="#C0C0C0" stroke="none" x="247" y="327" width="214" height="15" opacity="0.2"/></g><g transform="translate(-118,-54) scale(1,1)"><rect fill="#C0C0C0" stroke="none" x="247" y="341" width="535" height="106" opacity="0.2"/></g><g transform="translate(-118,-54) scale(1,1)"><rect fill="#ffffff" stroke="none" x="240" y="335" width="535" height="105"/></g><g transform="translate(-118,-54) scale(1,1)"><path fill="none" stroke="#000000" d="M 240 335 L 775 335 L 775 440 L 240 440 L 240 335 Z Z" stroke-miterlimit="10"/></g><g transform="translate(-118,-54) scale(1,1)"><rect fill="#ffffff" stroke="none" x="240" y="320" width="214" height="15"/></g><g transform="translate(-118,-54) scale(1,1)"><path fill="none" stroke="#000000" d="M 240 320 L 454 320 L 454 335 L 240 335 L 240 320 Z Z" stroke-miterlimit="10"/></g><g transform="translate(-118,-54) scale(1,1)"><rect fill="#ffffff" stroke="none" x="240" y="334" width="535" height="106"/></g><g transform="translate(-118,-54) scale(1,1)"><path fill="none" stroke="#000000" d="M 240 334 L 775 334 L 775 440 L 240 440 L 240 334 Z Z" stroke-miterlimit="10"/></g><g transform="translate(-118,-54) scale(1,1)"><g><path fill="none" stroke="none"/><text fill="#000000" stroke="none" font-family="Arial" font-size="13px" font-style="normal" font-weight="bold" text-decoration="none" x="459.089599609375" y="353">business 24k.id</text></g></g><g transform="translate(-118,-54) scale(1,1)"><rect fill="#C0C0C0" stroke="none" x="247" y="519" width="265.6" height="15" opacity="0.2"/></g><g transform="translate(-118,-54) scale(1,1)"><rect fill="#C0C0C0" stroke="none" x="247" y="533" width="664" height="146" opacity="0.2"/></g><g transform="translate(-118,-54) scale(1,1)"><rect fill="#ffffff" stroke="none" x="240" y="527" width="664" height="145"/></g><g transform="translate(-118,-54) scale(1,1)"><path fill="none" stroke="#000000" d="M 240 527 L 904 527 L 904 672 L 240 672 L 240 527 Z Z" stroke-miterlimit="10"/></g><g transform="translate(-118,-54) scale(1,1)"><rect fill="#ffffff" stroke="none" x="240" y="512" width="265.6" height="15"/></g><g transform="translate(-118,-54) scale(1,1)"><path fill="none" stroke="#000000" d="M 240 512 L 505.6 512 L 505.6 527 L 240 527 L 240 512 Z Z" stroke-miterlimit="10"/></g><g transform="translate(-118,-54) scale(1,1)"><rect fill="#ffffff" stroke="none" x="240" y="526" width="664" height="146"/></g><g transform="translate(-118,-54) scale(1,1)"><path fill="none" stroke="#000000" d="M 240 526 L 904 526 L 904 672 L 240 672 L 240 526 Z Z" stroke-miterlimit="10"/></g><g transform="translate(-118,-54) scale(1,1)"><g><path fill="none" stroke="none"/><text fill="#000000" stroke="none" font-family="Arial" font-size="13px" font-style="normal" font-weight="bold" text-decoration="none" x="490.00732421875" y="545">MySQL Community Server</text></g></g><g transform="translate(-118,-54) scale(1,1)"><rect fill="#C0C0C0" stroke="none" x="407" y="743" width="64" height="15" opacity="0.2"/></g><g transform="translate(-118,-54) scale(1,1)"><rect fill="#C0C0C0" stroke="none" x="407" y="757" width="160" height="58" opacity="0.2"/></g><g transform="translate(-118,-54) scale(1,1)"><rect fill="#ffffff" stroke="none" x="400" y="751" width="160" height="57"/></g><g transform="translate(-118,-54) scale(1,1)"><path fill="none" stroke="#000000" d="M 400 751 L 560 751 L 560 808 L 400 808 L 400 751 Z Z" stroke-miterlimit="10"/></g><g transform="translate(-118,-54) scale(1,1)"><rect fill="#ffffff" stroke="none" x="400" y="736" width="64" height="15"/></g><g transform="translate(-118,-54) scale(1,1)"><path fill="none" stroke="#000000" d="M 400 736 L 464 736 L 464 751 L 400 751 L 400 736 Z Z" stroke-miterlimit="10"/></g><g transform="translate(-118,-54) scale(1,1)"><rect fill="#ffffff" stroke="none" x="400" y="750" width="160" height="58"/></g><g transform="translate(-118,-54) scale(1,1)"><path fill="none" stroke="#000000" d="M 400 750 L 560 750 L 560 808 L 400 808 L 400 750 Z Z" stroke-miterlimit="10"/></g><g transform="translate(-118,-54) scale(1,1)"><g><path fill="none" stroke="none"/><text fill="#000000" stroke="none" font-family="Arial" font-size="13px" font-style="normal" font-weight="bold" text-decoration="none" x="466.635009765625" y="769">data</text></g></g><g transform="translate(-118,-54) scale(1,1)"><rect fill="#C0C0C0" stroke="none" x="831" y="191" width="41.60000000000002" height="15" opacity="0.2"/></g><g transform="translate(-118,-54) scale(1,1)"><rect fill="#C0C0C0" stroke="none" x="831" y="205" width="104" height="42" opacity="0.2"/></g><g transform="translate(-118,-54) scale(1,1)"><rect fill="#ffffff" stroke="none" x="824" y="199" width="104" height="41"/></g><g transform="translate(-118,-54) scale(1,1)"><path fill="none" stroke="#000000" d="M 824 199 L 928 199 L 928 240 L 824 240 L 824 199 Z Z" stroke-miterlimit="10"/></g><g transform="translate(-118,-54) scale(1,1)"><rect fill="#ffffff" stroke="none" x="824" y="184" width="41.60000000000002" height="15"/></g><g transform="translate(-118,-54) scale(1,1)"><path fill="none" stroke="#000000" d="M 824 184 L 865.6 184 L 865.6 199 L 824 199 L 824 184 Z Z" stroke-miterlimit="10"/></g><g transform="translate(-118,-54) scale(1,1)"><rect fill="#ffffff" stroke="none" x="824" y="198" width="104" height="42"/></g><g transform="translate(-118,-54) scale(1,1)"><path fill="none" stroke="#000000" d="M 824 198 L 928 198 L 928 240 L 824 240 L 824 198 Z Z" stroke-miterlimit="10"/></g><g transform="translate(-118,-54) scale(1,1)"><g><path fill="none" stroke="none"/><text fill="#000000" stroke="none" font-family="Arial" font-size="13px" font-style="normal" font-weight="bold" text-decoration="none" x="852.535888671875" y="217">logging</text></g></g><g transform="translate(-118,-54) scale(1,1)"><rect fill="#C0C0C0" stroke="none" x="255" y="191" width="51.19999999999999" height="15" opacity="0.2"/></g><g transform="translate(-118,-54) scale(1,1)"><rect fill="#C0C0C0" stroke="none" x="255" y="205" width="128" height="42" opacity="0.2"/></g><g transform="translate(-118,-54) scale(1,1)"><rect fill="#ffffff" stroke="none" x="248" y="199" width="128" height="41"/></g><g transform="translate(-118,-54) scale(1,1)"><path fill="none" stroke="#000000" d="M 248 199 L 376 199 L 376 240 L 248 240 L 248 199 Z Z" stroke-miterlimit="10"/></g><g transform="translate(-118,-54) scale(1,1)"><rect fill="#ffffff" stroke="none" x="248" y="184" width="51.19999999999999" height="15"/></g><g transform="translate(-118,-54) scale(1,1)"><path fill="none" stroke="#000000" d="M 248 184 L 299.2 184 L 299.2 199 L 248 199 L 248 184 Z Z" stroke-miterlimit="10"/></g><g transform="translate(-118,-54) scale(1,1)"><rect fill="#ffffff" stroke="none" x="248" y="198" width="128" height="42"/></g><g transform="translate(-118,-54) scale(1,1)"><path fill="none" stroke="#000000" d="M 248 198 L 376 198 L 376 240 L 248 240 L 248 198 Z Z" stroke-miterlimit="10"/></g><g transform="translate(-118,-54) scale(1,1)"><g><path fill="none" stroke="none"/><text fill="#000000" stroke="none" font-family="Arial" font-size="13px" font-style="normal" font-weight="bold" text-decoration="none" x="254.9345703125" y="217">fastify and node.js</text></g></g><g transform="translate(-118,-54) scale(1,1)"><rect fill="#C0C0C0" stroke="none" x="391" y="191" width="73.60000000000002" height="15" opacity="0.2"/></g><g transform="translate(-118,-54) scale(1,1)"><rect fill="#C0C0C0" stroke="none" x="391" y="205" width="184" height="42" opacity="0.2"/></g><g transform="translate(-118,-54) scale(1,1)"><rect fill="#ffffff" stroke="none" x="384" y="199" width="184" height="41"/></g><g transform="translate(-118,-54) scale(1,1)"><path fill="none" stroke="#000000" d="M 384 199 L 568 199 L 568 240 L 384 240 L 384 199 Z Z" stroke-miterlimit="10"/></g><g transform="translate(-118,-54) scale(1,1)"><rect fill="#ffffff" stroke="none" x="384" y="184" width="73.60000000000002" height="15"/></g><g transform="translate(-118,-54) scale(1,1)"><path fill="none" stroke="#000000" d="M 384 184 L 457.6 184 L 457.6 199 L 384 199 L 384 184 Z Z" stroke-miterlimit="10"/></g><g transform="translate(-118,-54) scale(1,1)"><rect fill="#ffffff" stroke="none" x="384" y="198" width="184" height="42"/></g><g transform="translate(-118,-54) scale(1,1)"><path fill="none" stroke="#000000" d="M 384 198 L 568 198 L 568 240 L 384 240 L 384 198 Z Z" stroke-miterlimit="10"/></g><g transform="translate(-118,-54) scale(1,1)"><g><path fill="none" stroke="none"/><text fill="#000000" stroke="none" font-family="Arial" font-size="13px" font-style="normal" font-weight="bold" text-decoration="none" x="392.188720703125" y="217">transformers web resource</text></g></g><g transform="translate(-118,-54) scale(1,1)"><rect fill="#C0C0C0" stroke="none" x="583" y="191" width="41.60000000000002" height="15" opacity="0.2"/></g><g transform="translate(-118,-54) scale(1,1)"><rect fill="#C0C0C0" stroke="none" x="583" y="205" width="104" height="42" opacity="0.2"/></g><g transform="translate(-118,-54) scale(1,1)"><rect fill="#ffffff" stroke="none" x="576" y="199" width="104" height="41"/></g><g transform="translate(-118,-54) scale(1,1)"><path fill="none" stroke="#000000" d="M 576 199 L 680 199 L 680 240 L 576 240 L 576 199 Z Z" stroke-miterlimit="10"/></g><g transform="translate(-118,-54) scale(1,1)"><rect fill="#ffffff" stroke="none" x="576" y="184" width="41.60000000000002" height="15"/></g><g transform="translate(-118,-54) scale(1,1)"><path fill="none" stroke="#000000" d="M 576 184 L 617.6 184 L 617.6 199 L 576 199 L 576 184 Z Z" stroke-miterlimit="10"/></g><g transform="translate(-118,-54) scale(1,1)"><rect fill="#ffffff" stroke="none" x="576" y="198" width="104" height="42"/></g><g transform="translate(-118,-54) scale(1,1)"><path fill="none" stroke="#000000" d="M 576 198 L 680 198 L 680 240 L 576 240 L 576 198 Z Z" stroke-miterlimit="10"/></g><g transform="translate(-118,-54) scale(1,1)"><g><path fill="none" stroke="none"/><text fill="#000000" stroke="none" font-family="Arial" font-size="13px" font-style="normal" font-weight="bold" text-decoration="none" x="594.043212890625" y="217">exceptions</text></g></g><g transform="translate(-118,-54) scale(1,1)"><rect fill="#C0C0C0" stroke="none" x="695" y="191" width="35.200000000000045" height="15" opacity="0.2"/></g><g transform="translate(-118,-54) scale(1,1)"><rect fill="#C0C0C0" stroke="none" x="695" y="205" width="88" height="42" opacity="0.2"/></g><g transform="translate(-118,-54) scale(1,1)"><rect fill="#ffffff" stroke="none" x="688" y="199" width="88" height="41"/></g><g transform="translate(-118,-54) scale(1,1)"><path fill="none" stroke="#000000" d="M 688 199 L 776 199 L 776 240 L 688 240 L 688 199 Z Z" stroke-miterlimit="10"/></g><g transform="translate(-118,-54) scale(1,1)"><rect fill="#ffffff" stroke="none" x="688" y="184" width="35.200000000000045" height="15"/></g><g transform="translate(-118,-54) scale(1,1)"><path fill="none" stroke="#000000" d="M 688 184 L 723.2 184 L 723.2 199 L 688 199 L 688 184 Z Z" stroke-miterlimit="10"/></g><g transform="translate(-118,-54) scale(1,1)"><rect fill="#ffffff" stroke="none" x="688" y="198" width="88" height="42"/></g><g transform="translate(-118,-54) scale(1,1)"><path fill="none" stroke="#000000" d="M 688 198 L 776 198 L 776 240 L 688 240 L 688 198 Z Z" stroke-miterlimit="10"/></g><g transform="translate(-118,-54) scale(1,1)"><g><path fill="none" stroke="none"/><text fill="#000000" stroke="none" font-family="Arial" font-size="13px" font-style="normal" font-weight="bold" text-decoration="none" x="712.503173828125" y="217">config</text></g></g><g transform="translate(-118,-54) scale(1,1)"><rect fill="#C0C0C0" stroke="none" x="591" y="367" width="41.60000000000002" height="15" opacity="0.2"/></g><g transform="translate(-118,-54) scale(1,1)"><rect fill="#C0C0C0" stroke="none" x="591" y="381" width="104" height="42" opacity="0.2"/></g><g transform="translate(-118,-54) scale(1,1)"><rect fill="#ffffff" stroke="none" x="584" y="375" width="104" height="41"/></g><g transform="translate(-118,-54) scale(1,1)"><path fill="none" stroke="#000000" d="M 584 375 L 688 375 L 688 416 L 584 416 L 584 375 Z Z" stroke-miterlimit="10"/></g><g transform="translate(-118,-54) scale(1,1)"><rect fill="#ffffff" stroke="none" x="584" y="360" width="41.60000000000002" height="15"/></g><g transform="translate(-118,-54) scale(1,1)"><path fill="none" stroke="#000000" d="M 584 360 L 625.6 360 L 625.6 375 L 584 375 L 584 360 Z Z" stroke-miterlimit="10"/></g><g transform="translate(-118,-54) scale(1,1)"><rect fill="#ffffff" stroke="none" x="584" y="374" width="104" height="42"/></g><g transform="translate(-118,-54) scale(1,1)"><path fill="none" stroke="#000000" d="M 584 374 L 688 374 L 688 416 L 584 416 L 584 374 Z Z" stroke-miterlimit="10"/></g><g transform="translate(-118,-54) scale(1,1)"><g><path fill="none" stroke="none"/><text fill="#000000" stroke="none" font-family="Arial" font-size="13px" font-style="normal" font-weight="bold" text-decoration="none" x="602.043212890625" y="393">exceptions</text></g></g><g transform="translate(-118,-54) scale(1,1)"><rect fill="#C0C0C0" stroke="none" x="351" y="367" width="41.60000000000002" height="15" opacity="0.2"/></g><g transform="translate(-118,-54) scale(1,1)"><rect fill="#C0C0C0" stroke="none" x="351" y="381" width="104" height="42" opacity="0.2"/></g><g transform="translate(-118,-54) scale(1,1)"><rect fill="#ffffff" stroke="none" x="344" y="375" width="104" height="41"/></g><g transform="translate(-118,-54) scale(1,1)"><path fill="none" stroke="#000000" d="M 344 375 L 448 375 L 448 416 L 344 416 L 344 375 Z Z" stroke-miterlimit="10"/></g><g transform="translate(-118,-54) scale(1,1)"><rect fill="#ffffff" stroke="none" x="344" y="360" width="41.60000000000002" height="15"/></g><g transform="translate(-118,-54) scale(1,1)"><path fill="none" stroke="#000000" d="M 344 360 L 385.6 360 L 385.6 375 L 344 375 L 344 360 Z Z" stroke-miterlimit="10"/></g><g transform="translate(-118,-54) scale(1,1)"><rect fill="#ffffff" stroke="none" x="344" y="374" width="104" height="42"/></g><g transform="translate(-118,-54) scale(1,1)"><path fill="none" stroke="#000000" d="M 344 374 L 448 374 L 448 416 L 344 416 L 344 374 Z Z" stroke-miterlimit="10"/></g><g transform="translate(-118,-54) scale(1,1)"><g><path fill="none" stroke="none"/><text fill="#000000" stroke="none" font-family="Arial" font-size="13px" font-style="normal" font-weight="bold" text-decoration="none" x="375.77001953125" y="393">orders</text></g></g><g transform="translate(-118,-54) scale(1,1)"><rect fill="#C0C0C0" stroke="none" x="967" y="527" width="118.40000000000009" height="15" opacity="0.2"/></g><g transform="translate(-118,-54) scale(1,1)"><rect fill="#C0C0C0" stroke="none" x="967" y="541" width="296" height="58" opacity="0.2"/></g><g transform="translate(-118,-54) scale(1,1)"><rect fill="#ffffff" stroke="none" x="960" y="535" width="296" height="57"/></g><g transform="translate(-118,-54) scale(1,1)"><path fill="none" stroke="#000000" d="M 960 535 L 1256 535 L 1256 592 L 960 592 L 960 535 Z Z" stroke-miterlimit="10"/></g><g transform="translate(-118,-54) scale(1,1)"><rect fill="#ffffff" stroke="none" x="960" y="520" width="118.40000000000009" height="15"/></g><g transform="translate(-118,-54) scale(1,1)"><path fill="none" stroke="#000000" d="M 960 520 L 1078.4 520 L 1078.4 535 L 960 535 L 960 520 Z Z" stroke-miterlimit="10"/></g><g transform="translate(-118,-54) scale(1,1)"><rect fill="#ffffff" stroke="none" x="960" y="534" width="296" height="58"/></g><g transform="translate(-118,-54) scale(1,1)"><path fill="none" stroke="#000000" d="M 960 534 L 1256 534 L 1256 592 L 960 592 L 960 534 Z Z" stroke-miterlimit="10"/></g><g transform="translate(-118,-54) scale(1,1)"><g><path fill="none" stroke="none"/><text fill="#000000" stroke="none" font-family="Arial" font-size="13px" font-style="normal" font-weight="bold" text-decoration="none" x="1010.820556640625" y="553">mysql-connector-java-8.0.30.jar</text><text fill="#000000" stroke="none" font-family="Arial" font-size="13px" font-style="normal" font-weight="bold" text-decoration="none" x="1009.0400390625" y="566">mysql-connector-java-nn-bin.jar</text><text fill="#000000" stroke="none" font-family="Arial" font-size="13px" font-style="normal" font-weight="bold" text-decoration="none" x="1038.280517578125" y="579">com.mysql.jdbc.Driver</text></g></g><g transform="translate(-118,-54) scale(1,1)"><rect fill="#C0C0C0" stroke="none" x="271" y="567" width="41.60000000000002" height="15" opacity="0.2"/></g><g transform="translate(-118,-54) scale(1,1)"><rect fill="#C0C0C0" stroke="none" x="271" y="581" width="104" height="42" opacity="0.2"/></g><g transform="translate(-118,-54) scale(1,1)"><rect fill="#ffffff" stroke="none" x="264" y="575" width="104" height="41"/></g><g transform="translate(-118,-54) scale(1,1)"><path fill="none" stroke="#000000" d="M 264 575 L 368 575 L 368 616 L 264 616 L 264 575 Z Z" stroke-miterlimit="10"/></g><g transform="translate(-118,-54) scale(1,1)"><rect fill="#ffffff" stroke="none" x="264" y="560" width="41.60000000000002" height="15"/></g><g transform="translate(-118,-54) scale(1,1)"><path fill="none" stroke="#000000" d="M 264 560 L 305.6 560 L 305.6 575 L 264 575 L 264 560 Z Z" stroke-miterlimit="10"/></g><g transform="translate(-118,-54) scale(1,1)"><rect fill="#ffffff" stroke="none" x="264" y="574" width="104" height="42"/></g><g transform="translate(-118,-54) scale(1,1)"><path fill="none" stroke="#000000" d="M 264 574 L 368 574 L 368 616 L 264 616 L 264 574 Z Z" stroke-miterlimit="10"/></g><g transform="translate(-118,-54) scale(1,1)"><g><path fill="none" stroke="none"/><text fill="#000000" stroke="none" font-family="Arial" font-size="13px" font-style="normal" font-weight="bold" text-decoration="none" x="277.70458984375" y="593">datasources</text></g></g><g transform="translate(-118,-54) scale(1,1)"><rect fill="#C0C0C0" stroke="none" x="399" y="567" width="41.60000000000002" height="15" opacity="0.2"/></g><g transform="translate(-118,-54) scale(1,1)"><rect fill="#C0C0C0" stroke="none" x="399" y="581" width="104" height="42" opacity="0.2"/></g><g transform="translate(-118,-54) scale(1,1)"><rect fill="#ffffff" stroke="none" x="392" y="575" width="104" height="41"/></g><g transform="translate(-118,-54) scale(1,1)"><path fill="none" stroke="#000000" d="M 392 575 L 496 575 L 496 616 L 392 616 L 392 575 Z Z" stroke-miterlimit="10"/></g><g transform="translate(-118,-54) scale(1,1)"><rect fill="#ffffff" stroke="none" x="392" y="560" width="41.60000000000002" height="15"/></g><g transform="translate(-118,-54) scale(1,1)"><path fill="none" stroke="#000000" d="M 392 560 L 433.6 560 L 433.6 575 L 392 575 L 392 560 Z Z" stroke-miterlimit="10"/></g><g transform="translate(-118,-54) scale(1,1)"><rect fill="#ffffff" stroke="none" x="392" y="574" width="104" height="42"/></g><g transform="translate(-118,-54) scale(1,1)"><path fill="none" stroke="#000000" d="M 392 574 L 496 574 L 496 616 L 392 616 L 392 574 Z Z" stroke-miterlimit="10"/></g><g transform="translate(-118,-54) scale(1,1)"><g><path fill="none" stroke="none"/><text fill="#000000" stroke="none" font-family="Arial" font-size="13px" font-style="normal" font-weight="bold" text-decoration="none" x="415.82275390625" y="593">sql_pkgs</text></g></g><g transform="translate(-118,-54) scale(1,1)"><rect fill="#C0C0C0" stroke="none" x="527" y="567" width="41.60000000000002" height="15" opacity="0.2"/></g><g transform="translate(-118,-54) scale(1,1)"><rect fill="#C0C0C0" stroke="none" x="527" y="581" width="104" height="42" opacity="0.2"/></g><g transform="translate(-118,-54) scale(1,1)"><rect fill="#ffffff" stroke="none" x="520" y="575" width="104" height="41"/></g><g transform="translate(-118,-54) scale(1,1)"><path fill="none" stroke="#000000" d="M 520 575 L 624 575 L 624 616 L 520 616 L 520 575 Z Z" stroke-miterlimit="10"/></g><g transform="translate(-118,-54) scale(1,1)"><rect fill="#ffffff" stroke="none" x="520" y="560" width="41.60000000000002" height="15"/></g><g transform="translate(-118,-54) scale(1,1)"><path fill="none" stroke="#000000" d="M 520 560 L 561.6 560 L 561.6 575 L 520 575 L 520 560 Z Z" stroke-miterlimit="10"/></g><g transform="translate(-118,-54) scale(1,1)"><rect fill="#ffffff" stroke="none" x="520" y="574" width="104" height="42"/></g><g transform="translate(-118,-54) scale(1,1)"><path fill="none" stroke="#000000" d="M 520 574 L 624 574 L 624 616 L 520 616 L 520 574 Z Z" stroke-miterlimit="10"/></g><g transform="translate(-118,-54) scale(1,1)"><g><path fill="none" stroke="none"/><text fill="#000000" stroke="none" font-family="Arial" font-size="13px" font-style="normal" font-weight="bold" text-decoration="none" x="548.878662109375" y="593">helpers</text></g></g><g transform="translate(-118,-54) scale(1,1)"><rect fill="#C0C0C0" stroke="none" x="655" y="567" width="41.60000000000002" height="15" opacity="0.2"/></g><g transform="translate(-118,-54) scale(1,1)"><rect fill="#C0C0C0" stroke="none" x="655" y="581" width="104" height="42" opacity="0.2"/></g><g transform="translate(-118,-54) scale(1,1)"><rect fill="#ffffff" stroke="none" x="648" y="575" width="104" height="41"/></g><g transform="translate(-118,-54) scale(1,1)"><path fill="none" stroke="#000000" d="M 648 575 L 752 575 L 752 616 L 648 616 L 648 575 Z Z" stroke-miterlimit="10"/></g><g transform="translate(-118,-54) scale(1,1)"><rect fill="#ffffff" stroke="none" x="648" y="560" width="41.60000000000002" height="15"/></g><g transform="translate(-118,-54) scale(1,1)"><path fill="none" stroke="#000000" d="M 648 560 L 689.6 560 L 689.6 575 L 648 575 L 648 560 Z Z" stroke-miterlimit="10"/></g><g transform="translate(-118,-54) scale(1,1)"><rect fill="#ffffff" stroke="none" x="648" y="574" width="104" height="42"/></g><g transform="translate(-118,-54) scale(1,1)"><path fill="none" stroke="#000000" d="M 648 574 L 752 574 L 752 616 L 648 616 L 648 574 Z Z" stroke-miterlimit="10"/></g><g transform="translate(-118,-54) scale(1,1)"><g><path fill="none" stroke="none"/><text fill="#000000" stroke="none" font-family="Arial" font-size="13px" font-style="normal" font-weight="bold" text-decoration="none" x="666.043212890625" y="593">exceptions</text></g></g><g transform="translate(-118,-54) scale(1,1)"><rect fill="#C0C0C0" stroke="none" x="783" y="567" width="41.60000000000002" height="15" opacity="0.2"/></g><g transform="translate(-118,-54) scale(1,1)"><rect fill="#C0C0C0" stroke="none" x="783" y="581" width="104" height="42" opacity="0.2"/></g><g transform="translate(-118,-54) scale(1,1)"><rect fill="#ffffff" stroke="none" x="776" y="575" width="104" height="41"/></g><g transform="translate(-118,-54) scale(1,1)"><path fill="none" stroke="#000000" d="M 776 575 L 880 575 L 880 616 L 776 616 L 776 575 Z Z" stroke-miterlimit="10"/></g><g transform="translate(-118,-54) scale(1,1)"><rect fill="#ffffff" stroke="none" x="776" y="560" width="41.60000000000002" height="15"/></g><g transform="translate(-118,-54) scale(1,1)"><path fill="none" stroke="#000000" d="M 776 560 L 817.6 560 L 817.6 575 L 776 575 L 776 560 Z Z" stroke-miterlimit="10"/></g><g transform="translate(-118,-54) scale(1,1)"><rect fill="#ffffff" stroke="none" x="776" y="574" width="104" height="42"/></g><g transform="translate(-118,-54) scale(1,1)"><path fill="none" stroke="#000000" d="M 776 574 L 880 574 L 880 616 L 776 616 L 776 574 Z Z" stroke-miterlimit="10"/></g><g transform="translate(-118,-54) scale(1,1)"><g><path fill="none" stroke="none"/><text fill="#000000" stroke="none" font-family="Arial" font-size="13px" font-style="normal" font-weight="bold" text-decoration="none" x="808.503173828125" y="593">config</text></g></g><g transform="translate(-118,-54) scale(1,1)"><path fill="none" stroke="#000000" d="M 240 552 L 176 552 L 176 760 L 400 760" stroke-miterlimit="10" stroke-dasharray="3"/></g><g transform="translate(-118,-54) scale(1,1)"><path fill="none" stroke="#000000" d="M 389.83732514237585 764.209517756016 L 400 760 L 389.83732514237585 755.790482243984" stroke-miterlimit="10"/></g><g transform="translate(-118,-54) scale(1,1)"><path fill="none" stroke="#000000" d="M 240 384 L 152 384 L 152 776 L 400 776" stroke-miterlimit="10" stroke-dasharray="3"/></g><g transform="translate(-118,-54) scale(1,1)"><path fill="none" stroke="#000000" d="M 389.83732514237585 780.209517756016 L 400 776 L 389.83732514237585 771.790482243984" stroke-miterlimit="10"/></g><g transform="translate(-118,-54) scale(1,1)"><path fill="none" stroke="#000000" d="M 240 232 L 128 232 L 128 792 L 400 792" stroke-miterlimit="10" stroke-dasharray="3"/></g><g transform="translate(-118,-54) scale(1,1)"><path fill="none" stroke="#000000" d="M 389.83732514237585 796.209517756016 L 400 792 L 389.83732514237585 787.790482243984" stroke-miterlimit="10"/></g><g transform="translate(-118,-54) scale(1,1)"><path fill="none" stroke="#000000" d="M 320 240 L 320 288 L 400 288 L 400 320" stroke-miterlimit="10" stroke-dasharray="3"/></g><g transform="translate(-118,-54) scale(1,1)"><path fill="none" stroke="#000000" d="M 395.790482243984 309.83732514237585 L 400 320 L 404.209517756016 309.83732514237585" stroke-miterlimit="10"/></g><g transform="translate(-118,-54) scale(1,1)"><path fill="none" stroke="#000000" d="M 344 240 L 344 272 L 800 272 L 800 232 L 824 232" stroke-miterlimit="10" stroke-dasharray="3"/></g><g transform="translate(-118,-54) scale(1,1)"><path fill="none" stroke="#000000" d="M 813.8373251423759 236.209517756016 L 824 232 L 813.8373251423758 227.790482243984" stroke-miterlimit="10"/></g><g transform="translate(-118,-54) scale(1,1)"><path fill="none" stroke="#000000" d="M 383 416 L 383 464 L 312 464 L 312 560" stroke-miterlimit="10" stroke-dasharray="3"/></g><g transform="translate(-118,-54) scale(1,1)"><path fill="none" stroke="#000000" d="M 307.790482243984 549.8373251423759 L 312 560 L 316.209517756016 549.8373251423759" stroke-miterlimit="10"/></g><g transform="translate(-118,-54) scale(1,1)"><path fill="none" stroke="#000000" d="M 400 416 L 400 496 L 424 496 L 424 560" stroke-miterlimit="10" stroke-dasharray="3"/></g><g transform="translate(-118,-54) scale(1,1)"><path fill="none" stroke="#000000" d="M 419.790482243984 549.8373251423759 L 424 560 L 428.209517756016 549.8373251423759" stroke-miterlimit="10"/></g><g transform="translate(-118,-54) scale(1,1)"><path fill="none" stroke="#000000" d="M 447 416 L 447 464 L 672 464 L 672 560" stroke-miterlimit="10" stroke-dasharray="3"/></g><g transform="translate(-118,-54) scale(1,1)"><path fill="none" stroke="#000000" d="M 667.790482243984 549.8373251423759 L 672 560 L 676.209517756016 549.8373251423759" stroke-miterlimit="10"/></g><g transform="translate(-118,-54) scale(1,1)"><path fill="none" stroke="#000000" d="M 880 240 L 880 480 L 328 480 L 328 560" stroke-miterlimit="10" stroke-dasharray="3"/></g><g transform="translate(-118,-54) scale(1,1)"><path fill="none" stroke="#000000" d="M 323.790482243984 549.8373251423759 L 328 560 L 332.209517756016 549.8373251423759" stroke-miterlimit="10"/></g><g transform="translate(-118,-54) scale(1,1)"><path fill="none" stroke="#000000" d="M 896 240 L 896 496 L 448 496 L 448 560" stroke-miterlimit="10" stroke-dasharray="3"/></g><g transform="translate(-118,-54) scale(1,1)"><path fill="none" stroke="#000000" d="M 443.790482243984 549.8373251423759 L 448 560 L 452.209517756016 549.8373251423759" stroke-miterlimit="10"/></g><g transform="translate(-118,-54) scale(1,1)"><path fill="none" stroke="#000000" d="M 392 588 L 368 588" stroke-miterlimit="10" stroke-dasharray="3"/></g><g transform="translate(-118,-54) scale(1,1)"><path fill="none" stroke="#000000" d="M 378.16267485762415 583.790482243984 L 368 588 L 378.16267485762415 592.209517756016" stroke-miterlimit="10"/></g><g transform="translate(-118,-54) scale(1,1)"><path fill="none" stroke="#000000" d="M 312 616 L 312 656 L 840 656 L 840 616" stroke-miterlimit="10" stroke-dasharray="3"/></g><g transform="translate(-118,-54) scale(1,1)"><path fill="none" stroke="#000000" d="M 844.209517756016 626.1626748576241 L 840 616 L 835.790482243984 626.1626748576241" stroke-miterlimit="10"/></g><g transform="translate(-118,-54) scale(1,1)"><path fill="none" stroke="#000000" d="M 496 588 L 520 588" stroke-miterlimit="10" stroke-dasharray="3"/></g><g transform="translate(-118,-54) scale(1,1)"><path fill="none" stroke="#000000" d="M 509.83732514237585 592.209517756016 L 520 588 L 509.83732514237585 583.790482243984" stroke-miterlimit="10"/></g><g transform="translate(-118,-54) scale(1,1)"><path fill="none" stroke="#000000" d="M 624 588 L 648 588" stroke-miterlimit="10" stroke-dasharray="3"/></g><g transform="translate(-118,-54) scale(1,1)"><path fill="none" stroke="#000000" d="M 637.8373251423759 592.209517756016 L 648 588 L 637.8373251423758 583.790482243984" stroke-miterlimit="10"/></g><g transform="translate(-118,-54) scale(1,1)"><path fill="none" stroke="#000000" d="M 427 616 L 427 712 L 216 712 L 216 928 L 264 928" stroke-miterlimit="10" stroke-dasharray="3"/></g><g transform="translate(-118,-54) scale(1,1)"><path fill="none" stroke="#000000" d="M 253.83732514237585 932.209517756016 L 264 928 L 253.83732514237585 923.790482243984" stroke-miterlimit="10"/></g><g transform="translate(-118,-54) scale(1,1)"><path fill="none" stroke="#000000" d="M 440 616 L 440 712 L 688 712 L 688 912" stroke-miterlimit="10" stroke-dasharray="3"/></g><g transform="translate(-118,-54) scale(1,1)"><path fill="none" stroke="#000000" d="M 683.790482243984 901.8373251423759 L 688 912 L 692.209517756016 901.8373251423759" stroke-miterlimit="10"/></g><g transform="translate(-118,-54) scale(1,1)"><path fill="none" stroke="#000000" d="M 555 616 L 555 696 L 728 696 L 728 912" stroke-miterlimit="10" stroke-dasharray="3"/></g><g transform="translate(-118,-54) scale(1,1)"><path fill="none" stroke="#000000" d="M 723.790482243984 901.8373251423759 L 728 912 L 732.209517756016 901.8373251423759" stroke-miterlimit="10"/></g><g transform="translate(-118,-54) scale(1,1)"><path fill="none" stroke="#000000" d="M 472 616 L 472 640 L 816 640 L 816 616" stroke-miterlimit="10" stroke-dasharray="3"/></g><g transform="translate(-118,-54) scale(1,1)"><path fill="none" stroke="#000000" d="M 820.209517756016 626.1626748576241 L 816 616 L 811.790482243984 626.1626748576241" stroke-miterlimit="10"/></g><g transform="translate(-118,-54) scale(1,1)"><path fill="none" stroke="#000000" d="M 904 572 L 960 572" stroke-miterlimit="10" stroke-dasharray="3"/></g><g transform="translate(-118,-54) scale(1,1)"><path fill="none" stroke="#000000" d="M 949.8373251423759 576.209517756016 L 960 572 L 949.8373251423758 567.790482243984" stroke-miterlimit="10"/></g><g transform="translate(-118,-54) scale(1,1)"><path fill="#ffffff" stroke="none" d="M 960 352 L 1221 352 L 1231 362 L 1231 407 L 960 407 L 960 352"/></g><g transform="translate(-118,-54) scale(1,1)"><path fill="none" stroke="#000000" d="M 960 352 L 1221 352 L 1231 362 L 1231 407 L 960 407 L 960 352 L 960 352" stroke-miterlimit="10"/></g><g transform="translate(-118,-54) scale(1,1)"><path fill="none" stroke="#000000" d="M 1221 352 L 1221 362 L 1231 362 L 1221 352" stroke-miterlimit="10"/></g><g transform="translate(-118,-54) scale(1,1)"><g><path fill="none" stroke="none"/><text fill="#000000" stroke="none" font-family="Arial" font-size="13px" font-style="normal" font-weight="normal" text-decoration="none" x="965" y="367">24k.id web provides business of GOLD</text><text fill="#000000" stroke="none" font-family="Arial" font-size="13px" font-style="normal" font-weight="normal" text-decoration="none" x="965" y="380">trading  and data access logic with</text><text fill="#000000" stroke="none" font-family="Arial" font-size="13px" font-style="normal" font-weight="normal" text-decoration="none" x="965" y="393">distributed transactions support, </text></g></g><g transform="translate(-118,-54) scale(1,1)"><path fill="none" stroke="#000000" d="M 960 380 L 775 380" stroke-miterlimit="10" stroke-dasharray="3"/></g><g transform="translate(-118,-54) scale(1,1)"><path fill="#ffffff" stroke="none" d="M 960 456 L 1189 456 L 1199 466 L 1199 495 L 960 495 L 960 456"/></g><g transform="translate(-118,-54) scale(1,1)"><path fill="none" stroke="#000000" d="M 960 456 L 1189 456 L 1199 466 L 1199 495 L 960 495 L 960 456 L 960 456" stroke-miterlimit="10"/></g><g transform="translate(-118,-54) scale(1,1)"><path fill="none" stroke="#000000" d="M 1189 456 L 1189 466 L 1199 466 L 1189 456" stroke-miterlimit="10"/></g><g transform="translate(-118,-54) scale(1,1)"><g><path fill="none" stroke="none"/><text fill="#000000" stroke="none" font-family="Arial" font-size="13px" font-style="normal" font-weight="normal" text-decoration="none" x="965" y="471">MySQL Community Server Driver</text></g></g><g transform="translate(-118,-54) scale(1,1)"><path fill="none" stroke="#000000" d="M 1059 496 L 1059 520" stroke-miterlimit="10" stroke-dasharray="3"/></g><g transform="translate(-118,-54) scale(1,1)"><rect fill="#C0C0C0" stroke="none" x="271" y="919" width="44.80000000000001" height="15" opacity="0.2"/></g><g transform="translate(-118,-54) scale(1,1)"><rect fill="#C0C0C0" stroke="none" x="271" y="933" width="112" height="42" opacity="0.2"/></g><g transform="translate(-118,-54) scale(1,1)"><rect fill="#ffffff" stroke="none" x="264" y="927" width="112" height="41"/></g><g transform="translate(-118,-54) scale(1,1)"><path fill="none" stroke="#000000" d="M 264 927 L 376 927 L 376 968 L 264 968 L 264 927 Z Z" stroke-miterlimit="10"/></g><g transform="translate(-118,-54) scale(1,1)"><rect fill="#ffffff" stroke="none" x="264" y="912" width="44.80000000000001" height="15"/></g><g transform="translate(-118,-54) scale(1,1)"><path fill="none" stroke="#000000" d="M 264 912 L 308.8 912 L 308.8 927 L 264 927 L 264 912 Z Z" stroke-miterlimit="10"/></g><g transform="translate(-118,-54) scale(1,1)"><rect fill="#ffffff" stroke="none" x="264" y="926" width="112" height="42"/></g><g transform="translate(-118,-54) scale(1,1)"><path fill="none" stroke="#000000" d="M 264 926 L 376 926 L 376 968 L 264 968 L 264 926 Z Z" stroke-miterlimit="10"/></g><g transform="translate(-118,-54) scale(1,1)"><g><path fill="none" stroke="none"/><text fill="#000000" stroke="none" font-family="Arial" font-size="13px" font-style="normal" font-weight="bold" text-decoration="none" x="309.89453125" y="945">dto</text></g></g><g transform="translate(-118,-54) scale(1,1)"><rect fill="#C0C0C0" stroke="none" x="663" y="919" width="41.60000000000002" height="15" opacity="0.2"/></g><g transform="translate(-118,-54) scale(1,1)"><rect fill="#C0C0C0" stroke="none" x="663" y="933" width="104" height="42" opacity="0.2"/></g><g transform="translate(-118,-54) scale(1,1)"><rect fill="#ffffff" stroke="none" x="656" y="927" width="104" height="41"/></g><g transform="translate(-118,-54) scale(1,1)"><path fill="none" stroke="#000000" d="M 656 927 L 760 927 L 760 968 L 656 968 L 656 927 Z Z" stroke-miterlimit="10"/></g><g transform="translate(-118,-54) scale(1,1)"><rect fill="#ffffff" stroke="none" x="656" y="912" width="41.60000000000002" height="15"/></g><g transform="translate(-118,-54) scale(1,1)"><path fill="none" stroke="#000000" d="M 656 912 L 697.6 912 L 697.6 927 L 656 927 L 656 912 Z Z" stroke-miterlimit="10"/></g><g transform="translate(-118,-54) scale(1,1)"><rect fill="#ffffff" stroke="none" x="656" y="926" width="104" height="42"/></g><g transform="translate(-118,-54) scale(1,1)"><path fill="none" stroke="#000000" d="M 656 926 L 760 926 L 760 968 L 656 968 L 656 926 Z Z" stroke-miterlimit="10"/></g><g transform="translate(-118,-54) scale(1,1)"><g><path fill="none" stroke="none"/><text fill="#000000" stroke="none" font-family="Arial" font-size="13px" font-style="normal" font-weight="bold" text-decoration="none" x="674.043212890625" y="945">exceptions</text></g></g><g transform="translate(-118,-54) scale(1,1)"><rect fill="#C0C0C0" stroke="none" x="407" y="919" width="41.60000000000002" height="15" opacity="0.2"/></g><g transform="translate(-118,-54) scale(1,1)"><rect fill="#C0C0C0" stroke="none" x="407" y="933" width="104" height="42" opacity="0.2"/></g><g transform="translate(-118,-54) scale(1,1)"><rect fill="#ffffff" stroke="none" x="400" y="927" width="104" height="41"/></g><g transform="translate(-118,-54) scale(1,1)"><path fill="none" stroke="#000000" d="M 400 927 L 504 927 L 504 968 L 400 968 L 400 927 Z Z" stroke-miterlimit="10"/></g><g transform="translate(-118,-54) scale(1,1)"><rect fill="#ffffff" stroke="none" x="400" y="912" width="41.60000000000002" height="15"/></g><g transform="translate(-118,-54) scale(1,1)"><path fill="none" stroke="#000000" d="M 400 912 L 441.6 912 L 441.6 927 L 400 927 L 400 912 Z Z" stroke-miterlimit="10"/></g><g transform="translate(-118,-54) scale(1,1)"><rect fill="#ffffff" stroke="none" x="400" y="926" width="104" height="42"/></g><g transform="translate(-118,-54) scale(1,1)"><path fill="none" stroke="#000000" d="M 400 926 L 504 926 L 504 968 L 400 968 L 400 926 Z Z" stroke-miterlimit="10"/></g><g transform="translate(-118,-54) scale(1,1)"><g><path fill="none" stroke="none"/><text fill="#000000" stroke="none" font-family="Arial" font-size="13px" font-style="normal" font-weight="bold" text-decoration="none" x="435.02001953125" y="944.5">types</text></g></g><g transform="translate(-118,-54) scale(1,1)"><rect fill="#C0C0C0" stroke="none" x="535" y="919" width="41.60000000000002" height="15" opacity="0.2"/></g><g transform="translate(-118,-54) scale(1,1)"><rect fill="#C0C0C0" stroke="none" x="535" y="933" width="104" height="42" opacity="0.2"/></g><g transform="translate(-118,-54) scale(1,1)"><rect fill="#ffffff" stroke="none" x="528" y="927" width="104" height="41"/></g><g transform="translate(-118,-54) scale(1,1)"><path fill="none" stroke="#000000" d="M 528 927 L 632 927 L 632 968 L 528 968 L 528 927 Z Z" stroke-miterlimit="10"/></g><g transform="translate(-118,-54) scale(1,1)"><rect fill="#ffffff" stroke="none" x="528" y="912" width="41.60000000000002" height="15"/></g><g transform="translate(-118,-54) scale(1,1)"><path fill="none" stroke="#000000" d="M 528 912 L 569.6 912 L 569.6 927 L 528 927 L 528 912 Z Z" stroke-miterlimit="10"/></g><g transform="translate(-118,-54) scale(1,1)"><rect fill="#ffffff" stroke="none" x="528" y="926" width="104" height="42"/></g><g transform="translate(-118,-54) scale(1,1)"><path fill="none" stroke="#000000" d="M 528 926 L 632 926 L 632 968 L 528 968 L 528 926 Z Z" stroke-miterlimit="10"/></g><g transform="translate(-118,-54) scale(1,1)"><g><path fill="none" stroke="none"/><text fill="#000000" stroke="none" font-family="Arial" font-size="13px" font-style="normal" font-weight="bold" text-decoration="none" x="559.763671875" y="945">values</text></g></g><g transform="translate(-118,-54) scale(1,1)"><path fill="none" stroke="#000000" d="M 348 911 L 445 809" stroke-miterlimit="10"/></g><g transform="translate(-118,-54) scale(1,1)"><path fill="#FFFFFF" stroke="none" d="M 433.1761404502268 814.0725121038852 C 433.1761404502268 810.2065185038851 436.3101468502268 807.0725121038852 440.1761404502268 807.0725121038852 C 444.0421340502268 807.0725121038852 447.1761404502268 810.2065185038851 447.1761404502268 814.0725121038852 C 447.1761404502268 817.9385057038852 444.0421340502268 821.0725121038852 440.1761404502268 821.0725121038852 C 436.3101468502268 821.0725121038852 433.1761404502268 817.9385057038852 433.1761404502268 814.0725121038852 Z"/></g><g transform="translate(-118,-54) scale(1,1)"><path fill="none" stroke="#000000" d="M 433.1761404502268 814.0725121038852 C 433.1761404502268 810.2065185038851 436.3101468502268 807.0725121038852 440.1761404502268 807.0725121038852 C 444.0421340502268 807.0725121038852 447.1761404502268 810.2065185038851 447.1761404502268 814.0725121038852 C 447.1761404502268 817.9385057038852 444.0421340502268 821.0725121038852 440.1761404502268 821.0725121038852 C 436.3101468502268 821.0725121038852 433.1761404502268 817.9385057038852 433.1761404502268 814.0725121038852 Z" stroke-miterlimit="10"/></g><g transform="translate(-118,-54) scale(1,1)"><path fill="none" stroke="#000000" d="M 435.3522809004536 819.1450242077705 L 445 809" stroke-miterlimit="10"/></g><g transform="translate(-118,-54) scale(1,1)"><path fill="none" stroke="#000000" d="M 445.248652554112 818.8963716536583 L 435.10362834634157 809.248652554112" stroke-miterlimit="10"/></g><g transform="translate(-118,-54) scale(1,1)"><path fill="none" stroke="#000000" d="M 457 911 L 474 809" stroke-miterlimit="10"/></g><g transform="translate(-118,-54) scale(1,1)"><path fill="#FFFFFF" stroke="none" d="M 465.8492070888625 815.904757466825 C 465.8492070888625 812.038763866825 468.9832134888625 808.904757466825 472.8492070888625 808.904757466825 C 476.7152006888625 808.904757466825 479.8492070888625 812.038763866825 479.8492070888625 815.904757466825 C 479.8492070888625 819.770751066825 476.7152006888625 822.904757466825 472.8492070888625 822.904757466825 C 468.9832134888625 822.904757466825 465.8492070888625 819.770751066825 465.8492070888625 815.904757466825 Z"/></g><g transform="translate(-118,-54) scale(1,1)"><path fill="none" stroke="#000000" d="M 465.8492070888625 815.904757466825 C 465.8492070888625 812.038763866825 468.9832134888625 808.904757466825 472.8492070888625 808.904757466825 C 476.7152006888625 808.904757466825 479.8492070888625 812.038763866825 479.8492070888625 815.904757466825 C 479.8492070888625 819.770751066825 476.7152006888625 822.904757466825 472.8492070888625 822.904757466825 C 468.9832134888625 822.904757466825 465.8492070888625 819.770751066825 465.8492070888625 815.904757466825 Z" stroke-miterlimit="10"/></g><g transform="translate(-118,-54) scale(1,1)"><path fill="none" stroke="#000000" d="M 471.698414177725 822.80951493365 L 474 809" stroke-miterlimit="10"/></g><g transform="translate(-118,-54) scale(1,1)"><path fill="none" stroke="#000000" d="M 479.7539645556875 817.0555503779625 L 465.9444496220375 814.7539645556875" stroke-miterlimit="10"/></g><g transform="translate(-118,-54) scale(1,1)"><path fill="none" stroke="#000000" d="M 563 911 L 502 809" stroke-miterlimit="10"/></g><g transform="translate(-118,-54) scale(1,1)"><path fill="#FFFFFF" stroke="none" d="M 498.5928050027257 815.0076411520987 C 498.5928050027257 811.1416475520987 501.72681140272573 808.0076411520987 505.59280500272575 808.0076411520987 C 509.4587986027258 808.0076411520987 512.5928050027258 811.1416475520987 512.5928050027258 815.0076411520987 C 512.5928050027258 818.8736347520987 509.4587986027258 822.0076411520987 505.59280500272575 822.0076411520987 C 501.72681140272573 822.0076411520987 498.5928050027257 818.8736347520987 498.5928050027257 815.0076411520987 Z"/></g><g transform="translate(-118,-54) scale(1,1)"><path fill="none" stroke="#000000" d="M 498.5928050027257 815.0076411520987 C 498.5928050027257 811.1416475520987 501.72681140272573 808.0076411520987 505.59280500272575 808.0076411520987 C 509.4587986027258 808.0076411520987 512.5928050027258 811.1416475520987 512.5928050027258 815.0076411520987 C 512.5928050027258 818.8736347520987 509.4587986027258 822.0076411520987 505.59280500272575 822.0076411520987 C 501.72681140272573 822.0076411520987 498.5928050027257 818.8736347520987 498.5928050027257 815.0076411520987 Z" stroke-miterlimit="10"/></g><g transform="translate(-118,-54) scale(1,1)"><path fill="none" stroke="#000000" d="M 509.18561000545134 821.0152823041973 L 502 809" stroke-miterlimit="10"/></g><g transform="translate(-118,-54) scale(1,1)"><path fill="none" stroke="#000000" d="M 511.60044615482434 811.4148361493731 L 499.58516385062705 818.6004461548243" stroke-miterlimit="10"/></g><g transform="translate(-118,-54) scale(1,1)"><path fill="none" stroke="#000000" d="M 669 911 L 530 809" stroke-miterlimit="10"/></g><g transform="translate(-118,-54) scale(1,1)"><path fill="#FFFFFF" stroke="none" d="M 528.6435439122047 813.1413056046393 C 528.6435439122047 809.2753120046393 531.7775503122047 806.1413056046393 535.6435439122047 806.1413056046393 C 539.5095375122047 806.1413056046393 542.6435439122047 809.2753120046393 542.6435439122047 813.1413056046393 C 542.6435439122047 817.0072992046394 539.5095375122047 820.1413056046393 535.6435439122047 820.1413056046393 C 531.7775503122047 820.1413056046393 528.6435439122047 817.0072992046394 528.6435439122047 813.1413056046393 Z"/></g><g transform="translate(-118,-54) scale(1,1)"><path fill="none" stroke="#000000" d="M 528.6435439122047 813.1413056046393 C 528.6435439122047 809.2753120046393 531.7775503122047 806.1413056046393 535.6435439122047 806.1413056046393 C 539.5095375122047 806.1413056046393 542.6435439122047 809.2753120046393 542.6435439122047 813.1413056046393 C 542.6435439122047 817.0072992046394 539.5095375122047 820.1413056046393 535.6435439122047 820.1413056046393 C 531.7775503122047 820.1413056046393 528.6435439122047 817.0072992046394 528.6435439122047 813.1413056046393 Z" stroke-miterlimit="10"/></g><g transform="translate(-118,-54) scale(1,1)"><path fill="none" stroke="#000000" d="M 541.2870878244094 817.2826112092788 L 530 809" stroke-miterlimit="10"/></g><g transform="translate(-118,-54) scale(1,1)"><path fill="none" stroke="#000000" d="M 539.784849516844 807.4977616924347 L 531.5022383075653 818.784849516844" stroke-miterlimit="10"/></g><g transform="translate(-118,-54) scale(1,1)"><g><path fill="none" stroke="none"/><text fill="#000000" stroke="none" font-family="Arial" font-size="20px" font-style="normal" font-weight="normal" text-decoration="none" x="242.4765625" y="84">24k.id - WEB ARCHITECTURE (TYPE: UML PACKAGE DIAGRAM)</text></g></g><g transform="translate(-118,-54) scale(1,1)"><path fill="#ffffff" stroke="none" d="M 200 984 L 325 984 L 335 994 L 335 1031 L 200 1031 L 200 984"/></g><g transform="translate(-118,-54) scale(1,1)"><path fill="none" stroke="#000000" d="M 200 984 L 325 984 L 335 994 L 335 1031 L 200 1031 L 200 984 L 200 984" stroke-miterlimit="10"/></g><g transform="translate(-118,-54) scale(1,1)"><path fill="none" stroke="#000000" d="M 325 984 L 325 994 L 335 994 L 325 984" stroke-miterlimit="10"/></g><g transform="translate(-118,-54) scale(1,1)"><g><path fill="none" stroke="none"/><text fill="#000000" stroke="none" font-family="Arial" font-size="13px" font-style="normal" font-weight="normal" text-decoration="none" x="205" y="999">data transfer object</text></g></g><g transform="translate(-118,-54) scale(1,1)"><path fill="none" stroke="#000000" d="M 298 969 L 287 983" stroke-miterlimit="10" stroke-dasharray="3"/></g><g transform="translate(-118,-54) scale(1,1)"><rect fill="#ffffff" stroke="none" x="200" y="1048" width="215" height="23"/></g><g transform="translate(-118,-54) scale(1,1)"><path fill="none" stroke="#000000" d="M 200 1048 L 415 1048 L 415 1071 L 200 1071 L 200 1048 Z Z" stroke-miterlimit="10"/></g><g transform="translate(-118,-54) scale(1,1)"><path fill="none" stroke="#000000" d="M 232.39453125 1048 L 232.39453125 1071" stroke-miterlimit="10"/></g><g transform="translate(-118,-54) scale(1,1)"><g><path fill="none" stroke="none"/><text fill="#000000" stroke="none" font-family="Arial" font-size="13px" font-style="normal" font-weight="normal" text-decoration="none" x="236.89453125" y="1064">https://24k.id/</text></g></g><g transform="translate(-118,-54) scale(1,1)"><g><path fill="none" stroke="none"/><text fill="#000000" stroke="none" font-family="Arial" font-size="13px" font-style="normal" font-weight="bold" text-decoration="none" x="205" y="1064">link</text></g></g></g></svg>