<svg version="1.1" xmlns="http://www.w3.org/2000/svg" xmlns:xlink="http://www.w3.org/1999/xlink" width="1323.73779296875" height="740"><defs/><g><g transform="translate(-83,-54) scale(1,1)"><rect fill="#C0C0C0" stroke="none" x="257" y="151" width="302" height="496" opacity="0.2"/></g><g transform="translate(-83,-54) scale(1,1)"><rect fill="#ffffff" stroke="none" x="240" y="144" width="312" height="496"/></g><g transform="translate(-83,-54) scale(1,1)"><path fill="none" stroke="#000000" d="M 240 144 L 552 144 L 552 640 L 240 640 L 240 144 Z Z" stroke-miterlimit="10"/></g><g transform="translate(-83,-54) scale(1,1)"><rect fill="#ffffff" stroke="none" x="532" y="154" width="13" height="16"/></g><g transform="translate(-83,-54) scale(1,1)"><path fill="none" stroke="#000000" d="M 532 154 L 545 154 L 545 170 L 532 170 L 532 154 Z Z" stroke-miterlimit="10"/></g><g transform="translate(-83,-54) scale(1,1)"><rect fill="#ffffff" stroke="none" x="529" y="157" width="7" height="4"/></g><g transform="translate(-83,-54) scale(1,1)"><path fill="none" stroke="#000000" d="M 529 157 L 536 157 L 536 161 L 529 161 L 529 157 Z Z" stroke-miterlimit="10"/></g><g transform="translate(-83,-54) scale(1,1)"><rect fill="#ffffff" stroke="none" x="529" y="163" width="7" height="4"/></g><g transform="translate(-83,-54) scale(1,1)"><path fill="none" stroke="#000000" d="M 529 163 L 536 163 L 536 167 L 529 167 L 529 163 Z Z" stroke-miterlimit="10"/></g><g transform="translate(-83,-54) scale(1,1)"><g><path fill="none" stroke="none"/><text fill="#000000" stroke="none" font-family="Arial" font-size="13px" font-style="normal" font-weight="normal" text-decoration="none" x="345.70458984375" y="160">«subsystem»</text></g></g><g transform="translate(-83,-54) scale(1,1)"><g><path fill="none" stroke="none"/><text fill="#000000" stroke="none" font-family="Arial" font-size="13px" font-style="normal" font-weight="bold" text-decoration="none" x="353.781982421875" y="175">WebStore</text></g></g><g transform="translate(-83,-54) scale(1,1)"><rect fill="#C0C0C0" stroke="none" x="327" y="215" width="147.32275390625" height="56" opacity="0.2"/></g><g transform="translate(-83,-54) scale(1,1)"><rect fill="#ffffff" stroke="none" x="320" y="208" width="147.32275390625" height="56"/></g><g transform="translate(-83,-54) scale(1,1)"><path fill="none" stroke="#000000" d="M 320 208 L 467.32275390625 208 L 467.32275390625 264 L 320 264 L 320 208 Z Z" stroke-miterlimit="10"/></g><g transform="translate(-83,-54) scale(1,1)"><g><path fill="none" stroke="none"/><text fill="#000000" stroke="none" font-family="Arial" font-size="13px" font-style="normal" font-weight="bold" text-decoration="none" x="346.3427734375" y="226">: SearchEngine</text></g></g><g transform="translate(-83,-54) scale(1,1)"><rect fill="#ffffff" stroke="none" x="460.32275390625" y="232" width="14" height="14"/></g><g transform="translate(-83,-54) scale(1,1)"><path fill="none" stroke="#000000" d="M 460.32275390625 232 L 474.32275390625 232 L 474.32275390625 246 L 460.32275390625 246 L 460.32275390625 232 Z Z" stroke-miterlimit="10"/></g><g transform="translate(-83,-54) scale(1,1)"><rect fill="#ffffff" stroke="none" x="313" y="232" width="14" height="14"/></g><g transform="translate(-83,-54) scale(1,1)"><path fill="none" stroke="#000000" d="M 313 232 L 327 232 L 327 246 L 313 246 L 313 232 Z Z" stroke-miterlimit="10"/></g><g transform="translate(-83,-54) scale(1,1)"><rect fill="#ffffff" stroke="none" x="545" y="232" width="14" height="14"/></g><g transform="translate(-83,-54) scale(1,1)"><path fill="none" stroke="#000000" d="M 545 232 L 559 232 L 559 246 L 545 246 L 545 232 Z Z" stroke-miterlimit="10"/></g><g transform="translate(-83,-54) scale(1,1)"><path fill="#C0C0C0" stroke="none" d="M 652.108642578125 266.5 C 652.108642578125 260.1487248 657.257367378125 255 663.608642578125 255 C 669.959917778125 255 675.108642578125 260.1487248 675.108642578125 266.5 C 675.108642578125 272.8512752 669.959917778125 278 663.608642578125 278 C 657.257367378125 278 652.108642578125 272.8512752 652.108642578125 266.5 Z" opacity="0.2"/></g><g transform="translate(-83,-54) scale(1,1)"><path fill="none" stroke="#000000" d="M 656 270.5 A 11.5 11.5 0 0 1 656 247.5" stroke-miterlimit="10"/></g><g transform="translate(-83,-54) scale(1,1)"><path fill="#ffffff" stroke="none" d="M 648.108642578125 259.5 C 648.108642578125 254.8055792 651.914221778125 251 656.608642578125 251 C 661.303063378125 251 665.108642578125 254.8055792 665.108642578125 259.5 C 665.108642578125 264.1944208 661.303063378125 268 656.608642578125 268 C 651.914221778125 268 648.108642578125 264.1944208 648.108642578125 259.5 Z"/></g><g transform="translate(-83,-54) scale(1,1)"><path fill="none" stroke="#000000" d="M 648.108642578125 259.5 C 648.108642578125 254.8055792 651.914221778125 251 656.608642578125 251 C 661.303063378125 251 665.108642578125 254.8055792 665.108642578125 259.5 C 665.108642578125 264.1944208 661.303063378125 268 656.608642578125 268 C 651.914221778125 268 648.108642578125 264.1944208 648.108642578125 259.5 Z" stroke-miterlimit="10"/></g><g transform="translate(-83,-54) scale(1,1)"><g><path fill="none" stroke="none"/><text fill="#000000" stroke="none" font-family="Arial" font-size="13px" font-style="normal" font-weight="bold" text-decoration="none" x="630.23095703125" y="289">Physical</text><text fill="#000000" stroke="none" font-family="Arial" font-size="13px" font-style="normal" font-weight="bold" text-decoration="none" x="641.805908203125" y="302">Gold</text><text fill="#000000" stroke="none" font-family="Arial" font-size="13px" font-style="normal" font-weight="bold" text-decoration="none" x="632.052734375" y="315">Product</text></g></g><g transform="translate(-83,-54) scale(1,1)"><path fill="none" stroke="#000000" d="M 559 246 L 559 259 L 645.108642578125 259" stroke-miterlimit="10"/></g><g transform="translate(-83,-54) scale(1,1)"><rect fill="#ffffff" stroke="none" x="233" y="232" width="14" height="14"/></g><g transform="translate(-83,-54) scale(1,1)"><path fill="none" stroke="#000000" d="M 233 232 L 247 232 L 247 246 L 233 246 L 233 232 Z Z" stroke-miterlimit="10"/></g><g transform="translate(-83,-54) scale(1,1)"><rect fill="#C0C0C0" stroke="none" x="327" y="415" width="147.32275390625" height="64" opacity="0.2"/></g><g transform="translate(-83,-54) scale(1,1)"><rect fill="#ffffff" stroke="none" x="320" y="408" width="147.32275390625" height="64"/></g><g transform="translate(-83,-54) scale(1,1)"><path fill="none" stroke="#000000" d="M 320 408 L 467.32275390625 408 L 467.32275390625 472 L 320 472 L 320 408 Z Z" stroke-miterlimit="10"/></g><g transform="translate(-83,-54) scale(1,1)"><g><path fill="none" stroke="none"/><text fill="#000000" stroke="none" font-family="Arial" font-size="13px" font-style="normal" font-weight="bold" text-decoration="none" x="376.687744140625" y="426">: Cart</text></g></g><g transform="translate(-83,-54) scale(1,1)"><rect fill="#ffffff" stroke="none" x="313" y="424" width="14" height="14"/></g><g transform="translate(-83,-54) scale(1,1)"><path fill="none" stroke="#000000" d="M 313 424 L 327 424 L 327 438 L 313 438 L 313 424 Z Z" stroke-miterlimit="10"/></g><g transform="translate(-83,-54) scale(1,1)"><rect fill="#ffffff" stroke="none" x="392" y="465" width="14" height="14"/></g><g transform="translate(-83,-54) scale(1,1)"><path fill="none" stroke="#000000" d="M 392 465 L 406 465 L 406 479 L 392 479 L 392 465 Z Z" stroke-miterlimit="10"/></g><g transform="translate(-83,-54) scale(1,1)"><rect fill="#ffffff" stroke="none" x="460.32275390625" y="424" width="14" height="14"/></g><g transform="translate(-83,-54) scale(1,1)"><path fill="none" stroke="#000000" d="M 460.32275390625 424 L 474.32275390625 424 L 474.32275390625 438 L 460.32275390625 438 L 460.32275390625 424 Z Z" stroke-miterlimit="10"/></g><g transform="translate(-83,-54) scale(1,1)"><rect fill="#ffffff" stroke="none" x="233" y="424" width="14" height="14"/></g><g transform="translate(-83,-54) scale(1,1)"><path fill="none" stroke="#000000" d="M 233 424 L 247 424 L 247 438 L 233 438 L 233 424 Z Z" stroke-miterlimit="10"/></g><g transform="translate(-83,-54) scale(1,1)"><path fill="none" stroke="#000000" d="M 248 431 L 312 431" stroke-miterlimit="10"/></g><g transform="translate(-83,-54) scale(1,1)"><path fill="none" stroke="#000000" d="M 475 239 L 544 239" stroke-miterlimit="10"/></g><g transform="translate(-83,-54) scale(1,1)"><path fill="none" stroke="#000000" d="M 248 239 L 312 239" stroke-miterlimit="10"/></g><g transform="translate(-83,-54) scale(1,1)"><rect fill="#ffffff" stroke="none" x="545" y="424" width="14" height="14"/></g><g transform="translate(-83,-54) scale(1,1)"><path fill="none" stroke="#000000" d="M 545 424 L 559 424 L 559 438 L 545 438 L 545 424 Z Z" stroke-miterlimit="10"/></g><g transform="translate(-83,-54) scale(1,1)"><rect fill="#C0C0C0" stroke="none" x="327" y="535" width="147.32275390625" height="80" opacity="0.2"/></g><g transform="translate(-83,-54) scale(1,1)"><rect fill="#ffffff" stroke="none" x="320" y="528" width="147.32275390625" height="80"/></g><g transform="translate(-83,-54) scale(1,1)"><path fill="none" stroke="#000000" d="M 320 528 L 467.32275390625 528 L 467.32275390625 608 L 320 608 L 320 528 Z Z" stroke-miterlimit="10"/></g><g transform="translate(-83,-54) scale(1,1)"><g><path fill="none" stroke="none"/><text fill="#000000" stroke="none" font-family="Arial" font-size="13px" font-style="normal" font-weight="bold" text-decoration="none" x="344.194091796875" y="546">: Authentication</text></g></g><g transform="translate(-83,-54) scale(1,1)"><rect fill="#ffffff" stroke="none" x="460.32275390625" y="560" width="14" height="14"/></g><g transform="translate(-83,-54) scale(1,1)"><path fill="none" stroke="#000000" d="M 460.32275390625 560 L 474.32275390625 560 L 474.32275390625 574 L 460.32275390625 574 L 460.32275390625 560 Z Z" stroke-miterlimit="10"/></g><g transform="translate(-83,-54) scale(1,1)"><rect fill="#ffffff" stroke="none" x="313" y="560" width="14" height="14"/></g><g transform="translate(-83,-54) scale(1,1)"><path fill="none" stroke="#000000" d="M 313 560 L 327 560 L 327 574 L 313 574 L 313 560 Z Z" stroke-miterlimit="10"/></g><g transform="translate(-83,-54) scale(1,1)"><rect fill="#ffffff" stroke="none" x="392" y="521" width="14" height="14"/></g><g transform="translate(-83,-54) scale(1,1)"><path fill="none" stroke="#000000" d="M 392 521 L 406 521 L 406 535 L 392 535 L 392 521 Z Z" stroke-miterlimit="10"/></g><g transform="translate(-83,-54) scale(1,1)"><path fill="none" stroke="#000000" d="M 399 480 L 399 520" stroke-miterlimit="10"/></g><g transform="translate(-83,-54) scale(1,1)"><path fill="none" stroke="#000000" d="M 475 431 L 544 431" stroke-miterlimit="10"/></g><g transform="translate(-83,-54) scale(1,1)"><rect fill="#ffffff" stroke="none" x="233" y="560" width="14" height="14"/></g><g transform="translate(-83,-54) scale(1,1)"><path fill="none" stroke="#000000" d="M 233 560 L 247 560 L 247 574 L 233 574 L 233 560 Z Z" stroke-miterlimit="10"/></g><g transform="translate(-83,-54) scale(1,1)"><rect fill="#ffffff" stroke="none" x="545" y="560" width="14" height="14"/></g><g transform="translate(-83,-54) scale(1,1)"><path fill="none" stroke="#000000" d="M 545 560 L 559 560 L 559 574 L 545 574 L 545 560 Z Z" stroke-miterlimit="10"/></g><g transform="translate(-83,-54) scale(1,1)"><path fill="none" stroke="#000000" d="M 312 567 L 248 567" stroke-miterlimit="10"/></g><g transform="translate(-83,-54) scale(1,1)"><path fill="none" stroke="#000000" d="M 475 567 L 544 567" stroke-miterlimit="10"/></g><g transform="translate(-83,-54) scale(1,1)"><path fill="#C0C0C0" stroke="none" d="M 157.0390625 282.5 C 157.0390625 276.1487248 162.1877873 271 168.5390625 271 C 174.8903377 271 180.0390625 276.1487248 180.0390625 282.5 C 180.0390625 288.8512752 174.8903377 294 168.5390625 294 C 162.1877873 294 157.0390625 288.8512752 157.0390625 282.5 Z" opacity="0.2"/></g><g transform="translate(-83,-54) scale(1,1)"><path fill="#ffffff" stroke="none" d="M 150.0390625 275.5 C 150.0390625 269.1487248 155.1877873 264 161.5390625 264 C 167.8903377 264 173.0390625 269.1487248 173.0390625 275.5 C 173.0390625 281.8512752 167.8903377 287 161.5390625 287 C 155.1877873 287 150.0390625 281.8512752 150.0390625 275.5 Z"/></g><g transform="translate(-83,-54) scale(1,1)"><path fill="none" stroke="#000000" d="M 150.0390625 275.5 C 150.0390625 269.1487248 155.1877873 264 161.5390625 264 C 167.8903377 264 173.0390625 269.1487248 173.0390625 275.5 C 173.0390625 281.8512752 167.8903377 287 161.5390625 287 C 155.1877873 287 150.0390625 281.8512752 150.0390625 275.5 Z" stroke-miterlimit="10"/></g><g transform="translate(-83,-54) scale(1,1)"><g><path fill="none" stroke="none"/><text fill="#000000" stroke="none" font-family="Arial" font-size="13px" font-style="normal" font-weight="bold" text-decoration="none" x="100.5" y="305">GoldProductSearch</text></g></g><g transform="translate(-83,-54) scale(1,1)"><path fill="none" stroke="#000000" d="M 233 246 L 233 275 L 173.0390625 275" stroke-miterlimit="10"/></g><g transform="translate(-83,-54) scale(1,1)"><path fill="#C0C0C0" stroke="none" d="M 157.990478515625 474.5 C 157.990478515625 468.1487248 163.139203315625 463 169.490478515625 463 C 175.841753715625 463 180.990478515625 468.1487248 180.990478515625 474.5 C 180.990478515625 480.8512752 175.841753715625 486 169.490478515625 486 C 163.139203315625 486 157.990478515625 480.8512752 157.990478515625 474.5 Z" opacity="0.2"/></g><g transform="translate(-83,-54) scale(1,1)"><path fill="#ffffff" stroke="none" d="M 150.990478515625 467.5 C 150.990478515625 461.1487248 156.139203315625 456 162.490478515625 456 C 168.841753715625 456 173.990478515625 461.1487248 173.990478515625 467.5 C 173.990478515625 473.8512752 168.841753715625 479 162.490478515625 479 C 156.139203315625 479 150.990478515625 473.8512752 150.990478515625 467.5 Z"/></g><g transform="translate(-83,-54) scale(1,1)"><path fill="none" stroke="#000000" d="M 150.990478515625 467.5 C 150.990478515625 461.1487248 156.139203315625 456 162.490478515625 456 C 168.841753715625 456 173.990478515625 461.1487248 173.990478515625 467.5 C 173.990478515625 473.8512752 168.841753715625 479 162.490478515625 479 C 156.139203315625 479 150.990478515625 473.8512752 150.990478515625 467.5 Z" stroke-miterlimit="10"/></g><g transform="translate(-83,-54) scale(1,1)"><g><path fill="none" stroke="none"/><text fill="#000000" stroke="none" font-family="Arial" font-size="13px" font-style="normal" font-weight="bold" text-decoration="none" x="97.5" y="497">OnlineGoldShopping</text></g></g><g transform="translate(-83,-54) scale(1,1)"><path fill="none" stroke="#000000" d="M 233 438 L 233 467 L 173.990478515625 467" stroke-miterlimit="10"/></g><g transform="translate(-83,-54) scale(1,1)"><path fill="#C0C0C0" stroke="none" d="M 160.63134765625 610.5 C 160.63134765625 604.1487248 165.78007245625 599 172.13134765625 599 C 178.48262285625 599 183.63134765625 604.1487248 183.63134765625 610.5 C 183.63134765625 616.8512752 178.48262285625 622 172.13134765625 622 C 165.78007245625 622 160.63134765625 616.8512752 160.63134765625 610.5 Z" opacity="0.2"/></g><g transform="translate(-83,-54) scale(1,1)"><path fill="#ffffff" stroke="none" d="M 153.63134765625 603.5 C 153.63134765625 597.1487248 158.78007245625 592 165.13134765625 592 C 171.48262285625 592 176.63134765625 597.1487248 176.63134765625 603.5 C 176.63134765625 609.8512752 171.48262285625 615 165.13134765625 615 C 158.78007245625 615 153.63134765625 609.8512752 153.63134765625 603.5 Z"/></g><g transform="translate(-83,-54) scale(1,1)"><path fill="none" stroke="#000000" d="M 153.63134765625 603.5 C 153.63134765625 597.1487248 158.78007245625 592 165.13134765625 592 C 171.48262285625 592 176.63134765625 597.1487248 176.63134765625 603.5 C 176.63134765625 609.8512752 171.48262285625 615 165.13134765625 615 C 158.78007245625 615 153.63134765625 609.8512752 153.63134765625 603.5 Z" stroke-miterlimit="10"/></g><g transform="translate(-83,-54) scale(1,1)"><g><path fill="none" stroke="none"/><text fill="#000000" stroke="none" font-family="Arial" font-size="13px" font-style="normal" font-weight="bold" text-decoration="none" x="125.75048828125" y="633">UserSession</text></g></g><g transform="translate(-83,-54) scale(1,1)"><path fill="none" stroke="#000000" d="M 233 574 L 233 603 L 176.63134765625 603" stroke-miterlimit="10"/></g><g transform="translate(-83,-54) scale(1,1)"><path fill="#C0C0C0" stroke="none" d="M 649 466.5 C 649 460.1487248 654.1487248 455 660.5 455 C 666.8512752 455 672 460.1487248 672 466.5 C 672 472.8512752 666.8512752 478 660.5 478 C 654.1487248 478 649 472.8512752 649 466.5 Z" opacity="0.2"/></g><g transform="translate(-83,-54) scale(1,1)"><path fill="none" stroke="#000000" d="M 653 470.5 A 11.5 11.5 0 0 1 653 447.5" stroke-miterlimit="10"/></g><g transform="translate(-83,-54) scale(1,1)"><path fill="#ffffff" stroke="none" d="M 645 459.5 C 645 454.8055792 648.8055792 451 653.5 451 C 658.1944208 451 662 454.8055792 662 459.5 C 662 464.1944208 658.1944208 468 653.5 468 C 648.8055792 468 645 464.1944208 645 459.5 Z"/></g><g transform="translate(-83,-54) scale(1,1)"><path fill="none" stroke="#000000" d="M 645 459.5 C 645 454.8055792 648.8055792 451 653.5 451 C 658.1944208 451 662 454.8055792 662 459.5 C 662 464.1944208 658.1944208 468 653.5 468 C 648.8055792 468 645 464.1944208 645 459.5 Z" stroke-miterlimit="10"/></g><g transform="translate(-83,-54) scale(1,1)"><g><path fill="none" stroke="none"/><text fill="#000000" stroke="none" font-family="Arial" font-size="13px" font-style="normal" font-weight="bold" text-decoration="none" x="629.299560546875" y="489">Manage</text><text fill="#000000" stroke="none" font-family="Arial" font-size="13px" font-style="normal" font-weight="bold" text-decoration="none" x="635.799560546875" y="502">Order</text></g></g><g transform="translate(-83,-54) scale(1,1)"><path fill="none" stroke="#000000" d="M 559 438 L 559 459 L 642 459" stroke-miterlimit="10"/></g><g transform="translate(-83,-54) scale(1,1)"><path fill="#C0C0C0" stroke="none" d="M 653 602.5 C 653 596.1487248 658.1487248 591 664.5 591 C 670.8512752 591 676 596.1487248 676 602.5 C 676 608.8512752 670.8512752 614 664.5 614 C 658.1487248 614 653 608.8512752 653 602.5 Z" opacity="0.2"/></g><g transform="translate(-83,-54) scale(1,1)"><path fill="none" stroke="#000000" d="M 657 606.5 A 11.5 11.5 0 0 1 657 583.5" stroke-miterlimit="10"/></g><g transform="translate(-83,-54) scale(1,1)"><path fill="#ffffff" stroke="none" d="M 649 595.5 C 649 590.8055792 652.8055792 587 657.5 587 C 662.1944208 587 666 590.8055792 666 595.5 C 666 600.1944208 662.1944208 604 657.5 604 C 652.8055792 604 649 600.1944208 649 595.5 Z"/></g><g transform="translate(-83,-54) scale(1,1)"><path fill="none" stroke="#000000" d="M 649 595.5 C 649 590.8055792 652.8055792 587 657.5 587 C 662.1944208 587 666 590.8055792 666 595.5 C 666 600.1944208 662.1944208 604 657.5 604 C 652.8055792 604 649 600.1944208 649 595.5 Z" stroke-miterlimit="10"/></g><g transform="translate(-83,-54) scale(1,1)"><g><path fill="none" stroke="none"/><text fill="#000000" stroke="none" font-family="Arial" font-size="13px" font-style="normal" font-weight="bold" text-decoration="none" x="633.299560546875" y="625">Manage</text><text fill="#000000" stroke="none" font-family="Arial" font-size="13px" font-style="normal" font-weight="bold" text-decoration="none" x="639.431396484375" y="638">Users</text></g></g><g transform="translate(-83,-54) scale(1,1)"><path fill="none" stroke="#000000" d="M 559 574 L 559 595 L 646 595" stroke-miterlimit="10"/></g><g transform="translate(-83,-54) scale(1,1)"><rect fill="#C0C0C0" stroke="none" x="777" y="175" width="286" height="160" opacity="0.2"/></g><g transform="translate(-83,-54) scale(1,1)"><rect fill="#ffffff" stroke="none" x="760" y="168" width="296" height="160"/></g><g transform="translate(-83,-54) scale(1,1)"><path fill="none" stroke="#000000" d="M 760 168 L 1056 168 L 1056 328 L 760 328 L 760 168 Z Z" stroke-miterlimit="10"/></g><g transform="translate(-83,-54) scale(1,1)"><rect fill="#ffffff" stroke="none" x="1036" y="178" width="13" height="16"/></g><g transform="translate(-83,-54) scale(1,1)"><path fill="none" stroke="#000000" d="M 1036 178 L 1049 178 L 1049 194 L 1036 194 L 1036 178 Z Z" stroke-miterlimit="10"/></g><g transform="translate(-83,-54) scale(1,1)"><rect fill="#ffffff" stroke="none" x="1033" y="181" width="7" height="4"/></g><g transform="translate(-83,-54) scale(1,1)"><path fill="none" stroke="#000000" d="M 1033 181 L 1040 181 L 1040 185 L 1033 185 L 1033 181 Z Z" stroke-miterlimit="10"/></g><g transform="translate(-83,-54) scale(1,1)"><rect fill="#ffffff" stroke="none" x="1033" y="187" width="7" height="4"/></g><g transform="translate(-83,-54) scale(1,1)"><path fill="none" stroke="#000000" d="M 1033 187 L 1040 187 L 1040 191 L 1033 191 L 1033 187 Z Z" stroke-miterlimit="10"/></g><g transform="translate(-83,-54) scale(1,1)"><g><path fill="none" stroke="none"/><text fill="#000000" stroke="none" font-family="Arial" font-size="13px" font-style="normal" font-weight="normal" text-decoration="none" x="857.70458984375" y="184">«subsystem»</text></g></g><g transform="translate(-83,-54) scale(1,1)"><g><path fill="none" stroke="none"/><text fill="#000000" stroke="none" font-family="Arial" font-size="13px" font-style="normal" font-weight="bold" text-decoration="none" x="859.529541015625" y="199">GoldSupply</text></g></g><g transform="translate(-83,-54) scale(1,1)"><rect fill="#C0C0C0" stroke="none" x="831" y="239" width="160" height="56" opacity="0.2"/></g><g transform="translate(-83,-54) scale(1,1)"><rect fill="#ffffff" stroke="none" x="824" y="232" width="160" height="56"/></g><g transform="translate(-83,-54) scale(1,1)"><path fill="none" stroke="#000000" d="M 824 232 L 984 232 L 984 288 L 824 288 L 824 232 Z Z" stroke-miterlimit="10"/></g><g transform="translate(-83,-54) scale(1,1)"><g><path fill="none" stroke="none"/><text fill="#000000" stroke="none" font-family="Arial" font-size="13px" font-style="normal" font-weight="bold" text-decoration="none" x="870.773193359375" y="250">: Inventory</text></g></g><g transform="translate(-83,-54) scale(1,1)"><rect fill="#ffffff" stroke="none" x="977" y="256" width="14" height="14"/></g><g transform="translate(-83,-54) scale(1,1)"><path fill="none" stroke="#000000" d="M 977 256 L 991 256 L 991 270 L 977 270 L 977 256 Z Z" stroke-miterlimit="10"/></g><g transform="translate(-83,-54) scale(1,1)"><rect fill="#ffffff" stroke="none" x="817" y="256" width="14" height="14"/></g><g transform="translate(-83,-54) scale(1,1)"><path fill="none" stroke="#000000" d="M 817 256 L 831 256 L 831 270 L 817 270 L 817 256 Z Z" stroke-miterlimit="10"/></g><g transform="translate(-83,-54) scale(1,1)"><rect fill="#ffffff" stroke="none" x="753" y="259" width="14" height="14"/></g><g transform="translate(-83,-54) scale(1,1)"><path fill="none" stroke="#000000" d="M 753 259 L 767 259 L 767 273 L 753 273 L 753 259 Z Z" stroke-miterlimit="10"/></g><g transform="translate(-83,-54) scale(1,1)"><rect fill="#ffffff" stroke="none" x="1049" y="253" width="14" height="14"/></g><g transform="translate(-83,-54) scale(1,1)"><path fill="none" stroke="#000000" d="M 1049 253 L 1063 253 L 1063 267 L 1049 267 L 1049 253 Z Z" stroke-miterlimit="10"/></g><g transform="translate(-83,-54) scale(1,1)"><g><path fill="none" stroke="none"/><text fill="#000000" stroke="none" font-family="Arial" font-size="13px" font-style="normal" font-weight="normal" text-decoration="none" x="1007.79638671875" y="249.5">: Type</text></g></g><g transform="translate(-83,-54) scale(1,1)"><path fill="none" stroke="#000000" d="M 767 263 L 817 263" stroke-miterlimit="10"/></g><g transform="translate(-83,-54) scale(1,1)"><path fill="none" stroke="#000000" d="M 991 263 L 1049 263" stroke-miterlimit="10"/></g><g transform="translate(-83,-54) scale(1,1)"><path fill="none" stroke="#000000" d="M 753 259 L 668.108642578125 259" stroke-miterlimit="10"/></g><g transform="translate(-83,-54) scale(1,1)"><rect fill="#C0C0C0" stroke="none" x="777" y="367" width="285" height="424" opacity="0.2"/></g><g transform="translate(-83,-54) scale(1,1)"><rect fill="#ffffff" stroke="none" x="760" y="360" width="295" height="424"/></g><g transform="translate(-83,-54) scale(1,1)"><path fill="none" stroke="#000000" d="M 760 360 L 1055 360 L 1055 784 L 760 784 L 760 360 Z Z" stroke-miterlimit="10"/></g><g transform="translate(-83,-54) scale(1,1)"><rect fill="#ffffff" stroke="none" x="1035" y="370" width="13" height="16"/></g><g transform="translate(-83,-54) scale(1,1)"><path fill="none" stroke="#000000" d="M 1035 370 L 1048 370 L 1048 386 L 1035 386 L 1035 370 Z Z" stroke-miterlimit="10"/></g><g transform="translate(-83,-54) scale(1,1)"><rect fill="#ffffff" stroke="none" x="1032" y="373" width="7" height="4"/></g><g transform="translate(-83,-54) scale(1,1)"><path fill="none" stroke="#000000" d="M 1032 373 L 1039 373 L 1039 377 L 1032 377 L 1032 373 Z Z" stroke-miterlimit="10"/></g><g transform="translate(-83,-54) scale(1,1)"><rect fill="#ffffff" stroke="none" x="1032" y="379" width="7" height="4"/></g><g transform="translate(-83,-54) scale(1,1)"><path fill="none" stroke="#000000" d="M 1032 379 L 1039 379 L 1039 383 L 1032 383 L 1032 379 Z Z" stroke-miterlimit="10"/></g><g transform="translate(-83,-54) scale(1,1)"><g><path fill="none" stroke="none"/><text fill="#000000" stroke="none" font-family="Arial" font-size="13px" font-style="normal" font-weight="normal" text-decoration="none" x="857.20458984375" y="376">«subsystem»</text></g></g><g transform="translate(-83,-54) scale(1,1)"><g><path fill="none" stroke="none"/><text fill="#000000" stroke="none" font-family="Arial" font-size="13px" font-style="normal" font-weight="bold" text-decoration="none" x="853.123046875" y="391">JournalWallet</text></g></g><g transform="translate(-83,-54) scale(1,1)"><rect fill="#C0C0C0" stroke="none" x="839" y="423" width="160" height="72" opacity="0.2"/></g><g transform="translate(-83,-54) scale(1,1)"><rect fill="#ffffff" stroke="none" x="832" y="416" width="160" height="72"/></g><g transform="translate(-83,-54) scale(1,1)"><path fill="none" stroke="#000000" d="M 832 416 L 992 416 L 992 488 L 832 488 L 832 416 Z Z" stroke-miterlimit="10"/></g><g transform="translate(-83,-54) scale(1,1)"><g><path fill="none" stroke="none"/><text fill="#000000" stroke="none" font-family="Arial" font-size="13px" font-style="normal" font-weight="bold" text-decoration="none" x="886.714111328125" y="434">: Orders</text></g></g><g transform="translate(-83,-54) scale(1,1)"><rect fill="#C0C0C0" stroke="none" x="839" y="567" width="160" height="72" opacity="0.2"/></g><g transform="translate(-83,-54) scale(1,1)"><rect fill="#ffffff" stroke="none" x="832" y="560" width="160" height="72"/></g><g transform="translate(-83,-54) scale(1,1)"><path fill="none" stroke="#000000" d="M 832 560 L 992 560 L 992 632 L 832 632 L 832 560 Z Z" stroke-miterlimit="10"/></g><g transform="translate(-83,-54) scale(1,1)"><g><path fill="none" stroke="none"/><text fill="#000000" stroke="none" font-family="Arial" font-size="13px" font-style="normal" font-weight="bold" text-decoration="none" x="889.9609375" y="578">: Users</text></g></g><g transform="translate(-83,-54) scale(1,1)"><rect fill="#C0C0C0" stroke="none" x="839" y="695" width="160" height="56" opacity="0.2"/></g><g transform="translate(-83,-54) scale(1,1)"><rect fill="#ffffff" stroke="none" x="832" y="688" width="160" height="56"/></g><g transform="translate(-83,-54) scale(1,1)"><path fill="none" stroke="#000000" d="M 832 688 L 992 688 L 992 744 L 832 744 L 832 688 Z Z" stroke-miterlimit="10"/></g><g transform="translate(-83,-54) scale(1,1)"><g><path fill="none" stroke="none"/><text fill="#000000" stroke="none" font-family="Arial" font-size="13px" font-style="normal" font-weight="bold" text-decoration="none" x="884.552734375" y="706">: Journal</text></g></g><g transform="translate(-83,-54) scale(1,1)"><rect fill="#ffffff" stroke="none" x="753" y="590" width="14" height="14"/></g><g transform="translate(-83,-54) scale(1,1)"><path fill="none" stroke="#000000" d="M 753 590 L 767 590 L 767 604 L 753 604 L 753 590 Z Z" stroke-miterlimit="10"/></g><g transform="translate(-83,-54) scale(1,1)"><rect fill="#ffffff" stroke="none" x="1048" y="448" width="14" height="14"/></g><g transform="translate(-83,-54) scale(1,1)"><path fill="none" stroke="#000000" d="M 1048 448 L 1062 448 L 1062 462 L 1048 462 L 1048 448 Z Z" stroke-miterlimit="10"/></g><g transform="translate(-83,-54) scale(1,1)"><rect fill="#ffffff" stroke="none" x="753" y="448" width="14" height="14"/></g><g transform="translate(-83,-54) scale(1,1)"><path fill="none" stroke="#000000" d="M 753 448 L 767 448 L 767 462 L 753 462 L 753 448 Z Z" stroke-miterlimit="10"/></g><g transform="translate(-83,-54) scale(1,1)"><rect fill="#ffffff" stroke="none" x="825" y="448" width="14" height="14"/></g><g transform="translate(-83,-54) scale(1,1)"><path fill="none" stroke="#000000" d="M 825 448 L 839 448 L 839 462 L 825 462 L 825 448 Z Z" stroke-miterlimit="10"/></g><g transform="translate(-83,-54) scale(1,1)"><rect fill="#ffffff" stroke="none" x="904" y="481" width="14" height="14"/></g><g transform="translate(-83,-54) scale(1,1)"><path fill="none" stroke="#000000" d="M 904 481 L 918 481 L 918 495 L 904 495 L 904 481 Z Z" stroke-miterlimit="10"/></g><g transform="translate(-83,-54) scale(1,1)"><rect fill="#ffffff" stroke="none" x="985" y="448" width="14" height="14"/></g><g transform="translate(-83,-54) scale(1,1)"><path fill="none" stroke="#000000" d="M 985 448 L 999 448 L 999 462 L 985 462 L 985 448 Z Z" stroke-miterlimit="10"/></g><g transform="translate(-83,-54) scale(1,1)"><rect fill="#ffffff" stroke="none" x="904" y="625" width="14" height="14"/></g><g transform="translate(-83,-54) scale(1,1)"><path fill="none" stroke="#000000" d="M 904 625 L 918 625 L 918 639 L 904 639 L 904 625 Z Z" stroke-miterlimit="10"/></g><g transform="translate(-83,-54) scale(1,1)"><rect fill="#ffffff" stroke="none" x="825" y="592" width="14" height="14"/></g><g transform="translate(-83,-54) scale(1,1)"><path fill="none" stroke="#000000" d="M 825 592 L 839 592 L 839 606 L 825 606 L 825 592 Z Z" stroke-miterlimit="10"/></g><g transform="translate(-83,-54) scale(1,1)"><rect fill="#ffffff" stroke="none" x="904" y="553" width="14" height="14"/></g><g transform="translate(-83,-54) scale(1,1)"><path fill="none" stroke="#000000" d="M 904 553 L 918 553 L 918 567 L 904 567 L 904 553 Z Z" stroke-miterlimit="10"/></g><g transform="translate(-83,-54) scale(1,1)"><rect fill="#ffffff" stroke="none" x="904" y="681" width="14" height="14"/></g><g transform="translate(-83,-54) scale(1,1)"><path fill="none" stroke="#000000" d="M 904 681 L 918 681 L 918 695 L 904 695 L 904 681 Z Z" stroke-miterlimit="10"/></g><g transform="translate(-83,-54) scale(1,1)"><path fill="none" stroke="#000000" d="M 767 455 L 825 455" stroke-miterlimit="10"/></g><g transform="translate(-83,-54) scale(1,1)"><path fill="none" stroke="#000000" d="M 999 455 L 1048 455" stroke-miterlimit="10"/></g><g transform="translate(-83,-54) scale(1,1)"><path fill="none" stroke="#000000" d="M 911 495 L 911 553" stroke-miterlimit="10"/></g><g transform="translate(-83,-54) scale(1,1)"><path fill="none" stroke="#000000" d="M 825 599 L 767 599" stroke-miterlimit="10"/></g><g transform="translate(-83,-54) scale(1,1)"><path fill="none" stroke="#000000" d="M 911 639 L 911 681" stroke-miterlimit="10"/></g><g transform="translate(-83,-54) scale(1,1)"><path fill="none" stroke="#000000" d="M 753 459 L 665 459" stroke-miterlimit="10"/></g><g transform="translate(-83,-54) scale(1,1)"><path fill="none" stroke="#000000" d="M 753 595 L 669 595" stroke-miterlimit="10"/></g><g transform="translate(-83,-54) scale(1,1)"><path fill="#C0C0C0" stroke="none" d="M 1247.368896484375 337 C 1247.368896484375 327.0588736 1255.427770084375 319 1265.368896484375 319 C 1275.310022884375 319 1283.368896484375 327.0588736 1283.368896484375 337 C 1283.368896484375 346.9411264 1275.310022884375 355 1265.368896484375 355 C 1255.427770084375 355 1247.368896484375 346.9411264 1247.368896484375 337 Z" opacity="0.2"/></g><g transform="translate(-83,-54) scale(1,1)"><path fill="none" stroke="#000000" d="M 1276 330 A 18 18 0 0 1 1240 330" stroke-miterlimit="10"/></g><g transform="translate(-83,-54) scale(1,1)"><path fill="#ffffff" stroke="none" d="M 1243.368896484375 330 C 1243.368896484375 321.715728 1250.084624484375 315 1258.368896484375 315 C 1266.653168484375 315 1273.368896484375 321.715728 1273.368896484375 330 C 1273.368896484375 338.284272 1266.653168484375 345 1258.368896484375 345 C 1250.084624484375 345 1243.368896484375 338.284272 1243.368896484375 330 Z"/></g><g transform="translate(-83,-54) scale(1,1)"><path fill="none" stroke="#000000" d="M 1243.368896484375 330 C 1243.368896484375 321.715728 1250.084624484375 315 1258.368896484375 315 C 1266.653168484375 315 1273.368896484375 321.715728 1273.368896484375 330 C 1273.368896484375 338.284272 1266.653168484375 345 1258.368896484375 345 C 1250.084624484375 345 1243.368896484375 338.284272 1243.368896484375 330 Z" stroke-miterlimit="10"/></g><g transform="translate(-83,-54) scale(1,1)"><g><path fill="none" stroke="none"/><text fill="#000000" stroke="none" font-family="Arial" font-size="13px" font-style="normal" font-weight="bold" text-decoration="none" x="1172.053466796875" y="366">ManageGoldSupplyDemand</text></g></g><g transform="translate(-83,-54) scale(1,1)"><path fill="none" stroke="#000000" d="M 1063 264 L 1256 264 L 1256 312" stroke-miterlimit="10"/></g><g transform="translate(-83,-54) scale(1,1)"><path fill="none" stroke="#000000" d="M 1062 448 L 1258 448 L 1258 348" stroke-miterlimit="10"/></g><g transform="translate(-83,-54) scale(1,1)"><g><path fill="none" stroke="none"/><text fill="#000000" stroke="none" font-family="Arial" font-size="20px" font-style="normal" font-weight="normal" text-decoration="none" x="237" y="84">24k.id - Product Component (Type: UML Component Diagram)</text></g></g><g transform="translate(-83,-54) scale(1,1)"><rect fill="#ffffff" stroke="none" x="240" y="752" width="160" height="31"/></g><g transform="translate(-83,-54) scale(1,1)"><path fill="none" stroke="#000000" d="M 240 752 L 400 752 L 400 783 L 240 783 L 240 752 Z Z" stroke-miterlimit="10"/></g><g transform="translate(-83,-54) scale(1,1)"><path fill="none" stroke="#000000" d="M 272.39453125 752 L 272.39453125 783" stroke-miterlimit="10"/></g><g transform="translate(-83,-54) scale(1,1)"><g><path fill="none" stroke="none"/><text fill="#000000" stroke="none" font-family="Arial" font-size="13px" font-style="normal" font-weight="normal" text-decoration="none" x="276.89453125" y="768">https://24k.id/</text></g></g><g transform="translate(-83,-54) scale(1,1)"><g><path fill="none" stroke="none"/><text fill="#000000" stroke="none" font-family="Arial" font-size="13px" font-style="normal" font-weight="bold" text-decoration="none" x="245" y="768">link</text></g></g></g></svg>