<svg version="1.1" xmlns="http://www.w3.org/2000/svg" xmlns:xlink="http://www.w3.org/1999/xlink" width="668" height="555"><defs/><g><g transform="translate(-78,-22) scale(1,1)"><rect fill="#C0C0C0" stroke="none" x="95" y="95" width="120" height="48" opacity="0.2"/></g><g transform="translate(-78,-22) scale(1,1)"><rect fill="#ffffff" stroke="none" x="88" y="88" width="120" height="48"/></g><g transform="translate(-78,-22) scale(1,1)"><path fill="none" stroke="#000000" d="M 88 88 L 208 88 L 208 136 L 88 136 L 88 88 Z Z" stroke-miterlimit="10"/></g><g transform="translate(-78,-22) scale(1,1)"><rect fill="#ffffff" stroke="none" x="88" y="88" width="120" height="48"/></g><g transform="translate(-78,-22) scale(1,1)"><path fill="none" stroke="#000000" d="M 88 88 L 208 88 L 208 136 L 88 136 L 88 88 Z Z" stroke-miterlimit="10"/></g><g transform="translate(-78,-22) scale(1,1)"><g><path fill="none" stroke="none"/><text fill="#000000" stroke="none" font-family="Arial" font-size="13px" font-style="normal" font-weight="bold" text-decoration="none" x="112.25634765625" y="106">log: Logger</text><path fill="none" stroke="#000000" d="M 183.74365234375 107.5 L 112.25634765625 107.5" stroke-miterlimit="10"/></g></g><g transform="translate(-78,-22) scale(1,1)"><rect fill="#C0C0C0" stroke="none" x="223" y="223" width="250.033203125" height="64" opacity="0.2"/></g><g transform="translate(-78,-22) scale(1,1)"><rect fill="#ffffff" stroke="none" x="216" y="216" width="250.033203125" height="64"/></g><g transform="translate(-78,-22) scale(1,1)"><path fill="none" stroke="#000000" d="M 216 216 L 466.033203125 216 L 466.033203125 280 L 216 280 L 216 216 Z Z" stroke-miterlimit="10"/></g><g transform="translate(-78,-22) scale(1,1)"><rect fill="#ffffff" stroke="none" x="216" y="216" width="250.033203125" height="64"/></g><g transform="translate(-78,-22) scale(1,1)"><path fill="none" stroke="#000000" d="M 216 216 L 466.033203125 216 L 466.033203125 280 L 216 280 L 216 216 Z Z" stroke-miterlimit="10"/></g><g transform="translate(-78,-22) scale(1,1)"><path fill="none" stroke="#000000" d="M 216 241 L 466.033203125 241" stroke-miterlimit="10"/></g><g transform="translate(-78,-22) scale(1,1)"><g><path fill="none" stroke="none"/><text fill="#000000" stroke="none" font-family="Arial" font-size="13px" font-style="normal" font-weight="bold" text-decoration="none" x="295.862548828125" y="234">: UserManager</text><path fill="none" stroke="#000000" d="M 386.170654296875 235.5 L 295.862548828125 235.5" stroke-miterlimit="10"/></g></g><g transform="translate(-78,-22) scale(1,1)"><g><path fill="none" stroke="none"/><text fill="#000000" stroke="none" font-family="Arial" font-size="13px" font-style="normal" font-weight="normal" text-decoration="none" x="221" y="259">+authorizationRules</text></g></g><g transform="translate(-78,-22) scale(1,1)"><g><path fill="none" stroke="none"/><text fill="#000000" stroke="none" font-family="Arial" font-size="13px" font-style="normal" font-weight="normal" text-decoration="none" x="221" y="274">+digester: passwordDigester</text></g></g><g transform="translate(-78,-22) scale(1,1)"><path fill="none" stroke="#000000" d="M 216 240 L 144 240 L 144 136" stroke-miterlimit="10"/></g><g transform="translate(-78,-22) scale(1,1)"><g><path fill="none" stroke="none"/><text fill="#000000" stroke="none" font-family="Arial" font-size="13px" font-style="normal" font-weight="normal" text-decoration="none" x="150.7048568725586" y="165">-log</text></g></g><g transform="translate(-78,-22) scale(1,1)"><rect fill="#C0C0C0" stroke="none" x="223" y="367" width="64" height="40" opacity="0.2"/></g><g transform="translate(-78,-22) scale(1,1)"><rect fill="#ffffff" stroke="none" x="216" y="360" width="64" height="40"/></g><g transform="translate(-78,-22) scale(1,1)"><path fill="none" stroke="#000000" d="M 216 360 L 280 360 L 280 400 L 216 400 L 216 360 Z Z" stroke-miterlimit="10"/></g><g transform="translate(-78,-22) scale(1,1)"><rect fill="#ffffff" stroke="none" x="216" y="360" width="64" height="40"/></g><g transform="translate(-78,-22) scale(1,1)"><path fill="none" stroke="#000000" d="M 216 360 L 280 360 L 280 400 L 216 400 L 216 360 Z Z" stroke-miterlimit="10"/></g><g transform="translate(-78,-22) scale(1,1)"><g><path fill="none" stroke="none"/><text fill="#000000" stroke="none" font-family="Arial" font-size="13px" font-style="normal" font-weight="bold" text-decoration="none" x="221.641357421875" y="378"> :  String</text><path fill="none" stroke="#000000" d="M 274.358642578125 379.5 L 221.641357421875 379.5" stroke-miterlimit="10"/></g></g><g transform="translate(-78,-22) scale(1,1)"><path fill="#ffffff" stroke="none" d="M 104 440 L 221 440 L 231 450 L 231 515 L 104 515 L 104 440"/></g><g transform="translate(-78,-22) scale(1,1)"><path fill="none" stroke="#000000" d="M 104 440 L 221 440 L 231 450 L 231 515 L 104 515 L 104 440 L 104 440" stroke-miterlimit="10"/></g><g transform="translate(-78,-22) scale(1,1)"><path fill="none" stroke="#000000" d="M 221 440 L 221 450 L 231 450 L 221 440" stroke-miterlimit="10"/></g><g transform="translate(-78,-22) scale(1,1)"><g><path fill="none" stroke="none"/><text fill="#000000" stroke="none" font-family="Arial" font-size="13px" font-style="normal" font-weight="normal" text-decoration="none" x="109" y="455">collection of unique</text><text fill="#000000" stroke="none" font-family="Arial" font-size="13px" font-style="normal" font-weight="normal" text-decoration="none" x="109" y="465">anonymous</text><text fill="#000000" stroke="none" font-family="Arial" font-size="13px" font-style="normal" font-weight="normal" text-decoration="none" x="109" y="481">instances of</text><text fill="#000000" stroke="none" font-family="Arial" font-size="13px" font-style="normal" font-weight="normal" text-decoration="none" x="109" y="494">unknown classifier</text></g></g><g transform="translate(-78,-22) scale(1,1)"><path fill="none" stroke="#000000" d="M 231 401 L 200 439" stroke-miterlimit="10" stroke-dasharray="3"/></g><g transform="translate(-78,-22) scale(1,1)"><path fill="none" stroke="#000000" d="M 248 280 L 248 360" stroke-miterlimit="10"/></g><g transform="translate(-78,-22) scale(1,1)"><g><path fill="none" stroke="none"/><text fill="#000000" stroke="none" font-family="Arial" font-size="13px" font-style="normal" font-weight="normal" text-decoration="none" x="140.5" y="347">{ordered, unique}</text></g></g><g transform="translate(-78,-22) scale(1,1)"><rect fill="#C0C0C0" stroke="none" x="423" y="95" width="232" height="92" opacity="0.2"/></g><g transform="translate(-78,-22) scale(1,1)"><rect fill="#ffffff" stroke="none" x="416" y="88" width="232" height="92"/></g><g transform="translate(-78,-22) scale(1,1)"><path fill="none" stroke="#000000" d="M 416 88 L 648 88 L 648 180 L 416 180 L 416 88 Z Z" stroke-miterlimit="10"/></g><g transform="translate(-78,-22) scale(1,1)"><rect fill="#ffffff" stroke="none" x="416" y="88" width="232" height="92"/></g><g transform="translate(-78,-22) scale(1,1)"><path fill="none" stroke="#000000" d="M 416 88 L 648 88 L 648 180 L 416 180 L 416 88 Z Z" stroke-miterlimit="10"/></g><g transform="translate(-78,-22) scale(1,1)"><path fill="none" stroke="#000000" d="M 416 113 L 648 113" stroke-miterlimit="10"/></g><g transform="translate(-78,-22) scale(1,1)"><g><path fill="none" stroke="none"/><text fill="#000000" stroke="none" font-family="Arial" font-size="13px" font-style="normal" font-weight="bold" text-decoration="none" x="452.568603515625" y="106">loginCtrl: LoginController</text><path fill="none" stroke="#000000" d="M 611.431396484375 107.5 L 452.568603515625 107.5" stroke-miterlimit="10"/></g></g><g transform="translate(-78,-22) scale(1,1)"><g><path fill="none" stroke="none"/><text fill="#000000" stroke="none" font-family="Arial" font-size="13px" font-style="normal" font-weight="normal" text-decoration="none" x="421" y="129">-attempLimit: Integer</text></g></g><g transform="translate(-78,-22) scale(1,1)"><g><path fill="none" stroke="none"/><text fill="#000000" stroke="none" font-family="Arial" font-size="13px" font-style="normal" font-weight="normal" text-decoration="none" x="421" y="144">-lockoutTime: Integer</text></g></g><g transform="translate(-78,-22) scale(1,1)"><g><path fill="none" stroke="none"/><text fill="#000000" stroke="none" font-family="Arial" font-size="13px" font-style="normal" font-weight="normal" text-decoration="none" x="421" y="159">-loginURI = "/users/sign-in"</text></g></g><g transform="translate(-78,-22) scale(1,1)"><g><path fill="none" stroke="none"/><text fill="#000000" stroke="none" font-family="Arial" font-size="13px" font-style="normal" font-weight="normal" text-decoration="none" x="421" y="174">-logoutURI = "/users/sign-out"</text></g></g><g transform="translate(-78,-22) scale(1,1)"><rect fill="#C0C0C0" stroke="none" x="559" y="231" width="148.79443359375" height="40" opacity="0.2"/></g><g transform="translate(-78,-22) scale(1,1)"><rect fill="#ffffff" stroke="none" x="552" y="224" width="148.79443359375" height="40"/></g><g transform="translate(-78,-22) scale(1,1)"><path fill="none" stroke="#000000" d="M 552 224 L 700.79443359375 224 L 700.79443359375 264 L 552 264 L 552 224 Z Z" stroke-miterlimit="10"/></g><g transform="translate(-78,-22) scale(1,1)"><rect fill="#ffffff" stroke="none" x="552" y="224" width="148.79443359375" height="40"/></g><g transform="translate(-78,-22) scale(1,1)"><path fill="none" stroke="#000000" d="M 552 224 L 700.79443359375 224 L 700.79443359375 264 L 552 264 L 552 224 Z Z" stroke-miterlimit="10"/></g><g transform="translate(-78,-22) scale(1,1)"><g><path fill="none" stroke="none"/><text fill="#000000" stroke="none" font-family="Arial" font-size="13px" font-style="normal" font-weight="bold" text-decoration="none" x="571.150390625" y="242">defaultURI: String</text><path fill="none" stroke="#000000" d="M 681.64404296875 243.5 L 571.150390625 243.5" stroke-miterlimit="10"/></g></g><g transform="translate(-78,-22) scale(1,1)"><g><path fill="none" stroke="none"/><text fill="#000000" stroke="none" font-family="Arial" font-size="13px" font-style="normal" font-weight="normal" text-decoration="none" x="584.572509765625" y="257">"/users/profile"</text></g></g><g transform="translate(-78,-22) scale(1,1)"><path fill="none" stroke="#000000" d="M 608 180 L 608 224" stroke-miterlimit="10"/></g><g transform="translate(-78,-22) scale(1,1)"><rect fill="#C0C0C0" stroke="none" x="423" y="327" width="218.6123046875" height="64" opacity="0.2"/></g><g transform="translate(-78,-22) scale(1,1)"><rect fill="#ffffff" stroke="none" x="416" y="320" width="218.6123046875" height="64"/></g><g transform="translate(-78,-22) scale(1,1)"><path fill="none" stroke="#000000" d="M 416 320 L 634.6123046875 320 L 634.6123046875 384 L 416 384 L 416 320 Z Z" stroke-miterlimit="10"/></g><g transform="translate(-78,-22) scale(1,1)"><rect fill="#ffffff" stroke="none" x="416" y="320" width="218.6123046875" height="64"/></g><g transform="translate(-78,-22) scale(1,1)"><path fill="none" stroke="#000000" d="M 416 320 L 634.6123046875 320 L 634.6123046875 384 L 416 384 L 416 320 Z Z" stroke-miterlimit="10"/></g><g transform="translate(-78,-22) scale(1,1)"><path fill="none" stroke="#000000" d="M 416 345 L 634.6123046875 345" stroke-miterlimit="10"/></g><g transform="translate(-78,-22) scale(1,1)"><g><path fill="none" stroke="none"/><text fill="#000000" stroke="none" font-family="Arial" font-size="13px" font-style="normal" font-weight="bold" text-decoration="none" x="472.934814453125" y="338">: CookieManager</text><path fill="none" stroke="#000000" d="M 577.677490234375 339.5 L 472.934814453125 339.5" stroke-miterlimit="10"/></g></g><g transform="translate(-78,-22) scale(1,1)"><g><path fill="none" stroke="none"/><text fill="#000000" stroke="none" font-family="Arial" font-size="13px" font-style="normal" font-weight="normal" text-decoration="none" x="421" y="363">+cookieDomain</text></g></g><g transform="translate(-78,-22) scale(1,1)"><g><path fill="none" stroke="none"/><text fill="#000000" stroke="none" font-family="Arial" font-size="13px" font-style="normal" font-weight="normal" text-decoration="none" x="421" y="378">+uniqueCryptograph</text></g></g><g transform="translate(-78,-22) scale(1,1)"><path fill="none" stroke="#000000" d="M 504 180 L 504 320" stroke-miterlimit="10"/></g><g transform="translate(-78,-22) scale(1,1)"><g><path fill="none" stroke="none"/><text fill="#000000" stroke="none" font-family="Arial" font-size="13px" font-style="normal" font-weight="normal" text-decoration="none" x="518.5" y="307">-cookieMgr</text></g></g><g transform="translate(-78,-22) scale(1,1)"><path fill="none" stroke="#000000" d="M 320 280 L 320 356 L 416 356" stroke-miterlimit="10"/></g><g transform="translate(-78,-22) scale(1,1)"><g><path fill="none" stroke="none"/><text fill="#000000" stroke="none" font-family="Arial" font-size="13px" font-style="normal" font-weight="normal" text-decoration="none" x="336.5" y="345">-cookieMgr</text></g></g><g transform="translate(-78,-22) scale(1,1)"><path fill="none" stroke="#000000" d="M 416 112 L 208 112" stroke-miterlimit="10"/></g><g transform="translate(-78,-22) scale(1,1)"><g><path fill="none" stroke="none"/><text fill="#000000" stroke="none" font-family="Arial" font-size="13px" font-style="normal" font-weight="normal" text-decoration="none" x="221.7048568725586" y="131">-log</text></g></g><g transform="translate(-78,-22) scale(1,1)"><path fill="none" stroke="#000000" d="M 416 152 L 328 152 L 328 216" stroke-miterlimit="10"/></g><g transform="translate(-78,-22) scale(1,1)"><rect fill="#ffffff" stroke="none" x="104" y="536" width="223" height="31"/></g><g transform="translate(-78,-22) scale(1,1)"><path fill="none" stroke="#000000" d="M 104 536 L 327 536 L 327 567 L 104 567 L 104 536 Z Z" stroke-miterlimit="10"/></g><g transform="translate(-78,-22) scale(1,1)"><path fill="none" stroke="#000000" d="M 136.39453125 536 L 136.39453125 567" stroke-miterlimit="10"/></g><g transform="translate(-78,-22) scale(1,1)"><g><path fill="none" stroke="none"/><text fill="#000000" stroke="none" font-family="Arial" font-size="13px" font-style="normal" font-weight="normal" text-decoration="none" x="140.89453125" y="552">https://24k.id/</text></g></g><g transform="translate(-78,-22) scale(1,1)"><g><path fill="none" stroke="none"/><text fill="#000000" stroke="none" font-family="Arial" font-size="13px" font-style="normal" font-weight="bold" text-decoration="none" x="109" y="552">link</text></g></g><g transform="translate(-78,-22) scale(1,1)"><g><path fill="none" stroke="none"/><text fill="#000000" stroke="none" font-family="Arial" font-size="20px" font-style="normal" font-weight="normal" text-decoration="none" x="93" y="52">24k.id - LOGIN CONTROLLER (TYPE: UML OBJECT DIAGRAM)</text></g></g></g></svg>