<svg version="1.1" xmlns="http://www.w3.org/2000/svg" xmlns:xlink="http://www.w3.org/1999/xlink" width="892" height="571"><defs/><g><g transform="translate(-46,-38) scale(1,1)"><path fill="none" stroke="#000000" d="M 56 96 L 864 96 L 864 552 L 56 552 L 56 96" stroke-miterlimit="10"/></g><g transform="translate(-46,-38) scale(1,1)"><path fill="#ffffff" stroke="none" d="M 56 96 L 56 118 L 225.69580078125 118 L 236.69580078125 107 L 236.69580078125 96 L 56 96"/></g><g transform="translate(-46,-38) scale(1,1)"><path fill="none" stroke="#000000" d="M 56 96 L 56 118 L 225.69580078125 118 L 236.69580078125 107 L 236.69580078125 96 L 56 96 L 56 96" stroke-miterlimit="10"/></g><g transform="translate(-46,-38) scale(1,1)"><g><path fill="none" stroke="none"/><text fill="#000000" stroke="none" font-family="Arial" font-size="13px" font-style="normal" font-weight="normal" text-decoration="none" x="88.68994140625" y="112">24k.id Web Application</text></g></g><g transform="translate(-46,-38) scale(1,1)"><g><path fill="none" stroke="none"/><text fill="#000000" stroke="none" font-family="Arial" font-size="13px" font-style="normal" font-weight="bold" text-decoration="none" x="60.2890625" y="112">dep</text></g></g><g transform="translate(-46,-38) scale(1,1)"><path fill="#C0C0C0" stroke="none" d="M 79 209 L 412 209 L 412 526 L 79 526" opacity="0.2"/></g><g transform="translate(-46,-38) scale(1,1)"><path fill="#C0C0C0" stroke="none" d="M 79 209 L 89 199 L 422 199 L 412 209" opacity="0.2"/></g><g transform="translate(-46,-38) scale(1,1)"><path fill="#C0C0C0" stroke="none" d="M 422 199 L 412 209 L 412 526 L 422 516" opacity="0.2"/></g><g transform="translate(-46,-38) scale(1,1)"><path fill="#ffffff" stroke="none" d="M 72 202 L 405 202 L 405 519 L 72 519"/></g><g transform="translate(-46,-38) scale(1,1)"><path fill="#ffffff" stroke="none" d="M 72 202 L 82 192 L 415 192 L 405 202"/></g><g transform="translate(-46,-38) scale(1,1)"><path fill="#ffffff" stroke="none" d="M 415 192 L 405 202 L 405 519 L 415 509"/></g><g transform="translate(-46,-38) scale(1,1)"><path fill="none" stroke="#000000" d="M 72 202 L 405 202 L 405 519 L 72 519 L 72 202" stroke-miterlimit="10"/></g><g transform="translate(-46,-38) scale(1,1)"><path fill="none" stroke="#000000" d="M 72 202 L 82 192 L 415 192 L 405 202 L 72 202" stroke-miterlimit="10"/></g><g transform="translate(-46,-38) scale(1,1)"><path fill="none" stroke="#000000" d="M 415 192 L 405 202 L 405 519 L 415 509 L 415 192" stroke-miterlimit="10"/></g><g transform="translate(-46,-38) scale(1,1)"><g><path fill="none" stroke="none"/><text fill="#000000" stroke="none" font-family="Arial" font-size="13px" font-style="normal" font-weight="normal" text-decoration="none" x="212.98095703125" y="218">«device»</text></g></g><g transform="translate(-46,-38) scale(1,1)"><g><path fill="none" stroke="none"/><text fill="#000000" stroke="none" font-family="Arial" font-size="13px" font-style="normal" font-weight="bold" text-decoration="none" x="184.4482421875" y="233">Quasar.js Node.js</text></g></g><g transform="translate(-46,-38) scale(1,1)"><path fill="#C0C0C0" stroke="none" d="M 591 209 L 828 209 L 828 526 L 591 526" opacity="0.2"/></g><g transform="translate(-46,-38) scale(1,1)"><path fill="#C0C0C0" stroke="none" d="M 591 209 L 601 199 L 838 199 L 828 209" opacity="0.2"/></g><g transform="translate(-46,-38) scale(1,1)"><path fill="#C0C0C0" stroke="none" d="M 838 199 L 828 209 L 828 526 L 838 516" opacity="0.2"/></g><g transform="translate(-46,-38) scale(1,1)"><path fill="#ffffff" stroke="none" d="M 584 202 L 821 202 L 821 519 L 584 519"/></g><g transform="translate(-46,-38) scale(1,1)"><path fill="#ffffff" stroke="none" d="M 584 202 L 594 192 L 831 192 L 821 202"/></g><g transform="translate(-46,-38) scale(1,1)"><path fill="#ffffff" stroke="none" d="M 831 192 L 821 202 L 821 519 L 831 509"/></g><g transform="translate(-46,-38) scale(1,1)"><path fill="none" stroke="#000000" d="M 584 202 L 821 202 L 821 519 L 584 519 L 584 202" stroke-miterlimit="10"/></g><g transform="translate(-46,-38) scale(1,1)"><path fill="none" stroke="#000000" d="M 584 202 L 594 192 L 831 192 L 821 202 L 584 202" stroke-miterlimit="10"/></g><g transform="translate(-46,-38) scale(1,1)"><path fill="none" stroke="#000000" d="M 831 192 L 821 202 L 821 519 L 831 509 L 831 192" stroke-miterlimit="10"/></g><g transform="translate(-46,-38) scale(1,1)"><g><path fill="none" stroke="none"/><text fill="#000000" stroke="none" font-family="Arial" font-size="13px" font-style="normal" font-weight="normal" text-decoration="none" x="676.98095703125" y="218">«device»</text></g></g><g transform="translate(-46,-38) scale(1,1)"><g><path fill="none" stroke="none"/><text fill="#000000" stroke="none" font-family="Arial" font-size="13px" font-style="normal" font-weight="bold" text-decoration="none" x="648.4482421875" y="233">Quasar.js Node.js</text></g></g><g transform="translate(-46,-38) scale(1,1)"><path fill="#C0C0C0" stroke="none" d="M 103 273 L 377.3603515625 273 L 377.3603515625 486 L 103 486" opacity="0.2"/></g><g transform="translate(-46,-38) scale(1,1)"><path fill="#C0C0C0" stroke="none" d="M 103 273 L 113 263 L 387.3603515625 263 L 377.3603515625 273" opacity="0.2"/></g><g transform="translate(-46,-38) scale(1,1)"><path fill="#C0C0C0" stroke="none" d="M 387.3603515625 263 L 377.3603515625 273 L 377.3603515625 486 L 387.3603515625 476" opacity="0.2"/></g><g transform="translate(-46,-38) scale(1,1)"><path fill="#ffffff" stroke="none" d="M 96 266 L 370.3603515625 266 L 370.3603515625 479 L 96 479"/></g><g transform="translate(-46,-38) scale(1,1)"><path fill="#ffffff" stroke="none" d="M 96 266 L 106 256 L 380.3603515625 256 L 370.3603515625 266"/></g><g transform="translate(-46,-38) scale(1,1)"><path fill="#ffffff" stroke="none" d="M 380.3603515625 256 L 370.3603515625 266 L 370.3603515625 479 L 380.3603515625 469"/></g><g transform="translate(-46,-38) scale(1,1)"><path fill="none" stroke="#000000" d="M 96 266 L 370.3603515625 266 L 370.3603515625 479 L 96 479 L 96 266" stroke-miterlimit="10"/></g><g transform="translate(-46,-38) scale(1,1)"><path fill="none" stroke="#000000" d="M 96 266 L 106 256 L 380.3603515625 256 L 370.3603515625 266 L 96 266" stroke-miterlimit="10"/></g><g transform="translate(-46,-38) scale(1,1)"><path fill="none" stroke="#000000" d="M 380.3603515625 256 L 370.3603515625 266 L 370.3603515625 479 L 380.3603515625 469 L 380.3603515625 256" stroke-miterlimit="10"/></g><g transform="translate(-46,-38) scale(1,1)"><g><path fill="none" stroke="none"/><text fill="#000000" stroke="none" font-family="Arial" font-size="13px" font-style="normal" font-weight="normal" text-decoration="none" x="208.39111328125" y="280.5">«server»</text></g></g><g transform="translate(-46,-38) scale(1,1)"><g><path fill="none" stroke="none"/><text fill="#000000" stroke="none" font-family="Arial" font-size="13px" font-style="normal" font-weight="bold" text-decoration="none" x="100.5" y="297">AWS Amazon Web Services &amp; Local Server</text></g></g><g transform="translate(-46,-38) scale(1,1)"><path fill="#C0C0C0" stroke="none" d="M 151 337 L 318.0888671875 337 L 318.0888671875 446 L 151 446" opacity="0.2"/></g><g transform="translate(-46,-38) scale(1,1)"><path fill="#C0C0C0" stroke="none" d="M 151 337 L 161 327 L 328.0888671875 327 L 318.0888671875 337" opacity="0.2"/></g><g transform="translate(-46,-38) scale(1,1)"><path fill="#C0C0C0" stroke="none" d="M 328.0888671875 327 L 318.0888671875 337 L 318.0888671875 446 L 328.0888671875 436" opacity="0.2"/></g><g transform="translate(-46,-38) scale(1,1)"><path fill="#ffffff" stroke="none" d="M 144 330 L 311.0888671875 330 L 311.0888671875 439 L 144 439"/></g><g transform="translate(-46,-38) scale(1,1)"><path fill="#ffffff" stroke="none" d="M 144 330 L 154 320 L 321.0888671875 320 L 311.0888671875 330"/></g><g transform="translate(-46,-38) scale(1,1)"><path fill="#ffffff" stroke="none" d="M 321.0888671875 320 L 311.0888671875 330 L 311.0888671875 439 L 321.0888671875 429"/></g><g transform="translate(-46,-38) scale(1,1)"><path fill="none" stroke="#000000" d="M 144 330 L 311.0888671875 330 L 311.0888671875 439 L 144 439 L 144 330" stroke-miterlimit="10"/></g><g transform="translate(-46,-38) scale(1,1)"><path fill="none" stroke="#000000" d="M 144 330 L 154 320 L 321.0888671875 320 L 311.0888671875 330 L 144 330" stroke-miterlimit="10"/></g><g transform="translate(-46,-38) scale(1,1)"><path fill="none" stroke="#000000" d="M 321.0888671875 320 L 311.0888671875 330 L 311.0888671875 439 L 321.0888671875 429 L 321.0888671875 320" stroke-miterlimit="10"/></g><g transform="translate(-46,-38) scale(1,1)"><g><path fill="none" stroke="none"/><text fill="#000000" stroke="none" font-family="Arial" font-size="13px" font-style="normal" font-weight="normal" text-decoration="none" x="156.5" y="346">«executionEnvironment»</text></g></g><g transform="translate(-46,-38) scale(1,1)"><g><path fill="none" stroke="none"/><text fill="#000000" stroke="none" font-family="Arial" font-size="13px" font-style="normal" font-weight="bold" text-decoration="none" x="187.955810546875" y="361">Linux Fastify</text></g></g><g transform="translate(-46,-38) scale(1,1)"><path fill="#C0C0C0" stroke="none" d="M 623 273 L 794.9853515625 273 L 794.9853515625 478 L 623 478" opacity="0.2"/></g><g transform="translate(-46,-38) scale(1,1)"><path fill="#C0C0C0" stroke="none" d="M 623 273 L 633 263 L 804.9853515625 263 L 794.9853515625 273" opacity="0.2"/></g><g transform="translate(-46,-38) scale(1,1)"><path fill="#C0C0C0" stroke="none" d="M 804.9853515625 263 L 794.9853515625 273 L 794.9853515625 478 L 804.9853515625 468" opacity="0.2"/></g><g transform="translate(-46,-38) scale(1,1)"><path fill="#ffffff" stroke="none" d="M 616 266 L 787.9853515625 266 L 787.9853515625 471 L 616 471"/></g><g transform="translate(-46,-38) scale(1,1)"><path fill="#ffffff" stroke="none" d="M 616 266 L 626 256 L 797.9853515625 256 L 787.9853515625 266"/></g><g transform="translate(-46,-38) scale(1,1)"><path fill="#ffffff" stroke="none" d="M 797.9853515625 256 L 787.9853515625 266 L 787.9853515625 471 L 797.9853515625 461"/></g><g transform="translate(-46,-38) scale(1,1)"><path fill="none" stroke="#000000" d="M 616 266 L 787.9853515625 266 L 787.9853515625 471 L 616 471 L 616 266" stroke-miterlimit="10"/></g><g transform="translate(-46,-38) scale(1,1)"><path fill="none" stroke="#000000" d="M 616 266 L 626 256 L 797.9853515625 256 L 787.9853515625 266 L 616 266" stroke-miterlimit="10"/></g><g transform="translate(-46,-38) scale(1,1)"><path fill="none" stroke="#000000" d="M 797.9853515625 256 L 787.9853515625 266 L 787.9853515625 471 L 797.9853515625 461 L 797.9853515625 256" stroke-miterlimit="10"/></g><g transform="translate(-46,-38) scale(1,1)"><g><path fill="none" stroke="none"/><text fill="#000000" stroke="none" font-family="Arial" font-size="13px" font-style="normal" font-weight="normal" text-decoration="none" x="646.12548828125" y="282">«database system»</text></g></g><g transform="translate(-46,-38) scale(1,1)"><g><path fill="none" stroke="none"/><text fill="#000000" stroke="none" font-family="Arial" font-size="13px" font-style="normal" font-weight="bold" text-decoration="none" x="620.5" y="297">MySQL Community Server</text></g></g><g transform="translate(-46,-38) scale(1,1)"><path fill="none" stroke="#000000" d="M 417 356 L 583 356" stroke-miterlimit="10"/></g><g transform="translate(-46,-38) scale(1,1)"><g><path fill="none" stroke="none"/><text fill="#000000" stroke="none" font-family="Arial" font-size="13px" font-style="normal" font-weight="normal" text-decoration="none" x="475.5" y="346">+TCP/IP</text></g></g><g transform="translate(-46,-38) scale(1,1)"><g><path fill="none" stroke="none"/><text fill="#000000" stroke="none" font-family="Arial" font-size="13px" font-style="normal" font-weight="normal" text-decoration="none" x="469.5" y="331">«protocol»</text></g></g><g transform="translate(-46,-38) scale(1,1)"><g><path fill="none" stroke="none"/><text fill="#000000" stroke="none" font-family="Arial" font-size="20px" font-style="normal" font-weight="normal" text-decoration="none" x="69" y="68">24k.id - DEPLOYMENT WEB APPLICATION (TYPE: UML DEPLOYMENT DIAGRAM)</text></g></g><g transform="translate(-46,-38) scale(1,1)"><rect fill="#ffffff" stroke="none" x="56" y="568" width="135" height="31"/></g><g transform="translate(-46,-38) scale(1,1)"><path fill="none" stroke="#000000" d="M 56 568 L 191 568 L 191 599 L 56 599 L 56 568 Z Z" stroke-miterlimit="10"/></g><g transform="translate(-46,-38) scale(1,1)"><path fill="none" stroke="#000000" d="M 88.39453125 568 L 88.39453125 599" stroke-miterlimit="10"/></g><g transform="translate(-46,-38) scale(1,1)"><g><path fill="none" stroke="none"/><text fill="#000000" stroke="none" font-family="Arial" font-size="13px" font-style="normal" font-weight="normal" text-decoration="none" x="92.89453125" y="584">https://24k.id/</text></g></g><g transform="translate(-46,-38) scale(1,1)"><g><path fill="none" stroke="none"/><text fill="#000000" stroke="none" font-family="Arial" font-size="13px" font-style="normal" font-weight="bold" text-decoration="none" x="61" y="584">link</text></g></g></g></svg>