<svg version="1.1" xmlns="http://www.w3.org/2000/svg" xmlns:xlink="http://www.w3.org/1999/xlink" width="1014.6416015625" height="443"><defs/><g><g transform="translate(-22,2) scale(1,1)"><rect fill="#C0C0C0" stroke="none" x="95" y="47" width="76.64306640625" height="39" opacity="0.2"/></g><g transform="translate(-22,2) scale(1,1)"><rect fill="#ffffff" stroke="none" x="88" y="40" width="76.64306640625" height="39"/></g><g transform="translate(-22,2) scale(1,1)"><path fill="none" stroke="#000000" d="M 88 40 L 164.64306640625 40 L 164.64306640625 79 L 88 79 L 88 40 Z Z" stroke-miterlimit="10"/></g><g transform="translate(-22,2) scale(1,1)"><g><path fill="none" stroke="none"/><text fill="#000000" stroke="none" font-family="Arial" font-size="13px" font-style="normal" font-weight="bold" text-decoration="none" x="97.5" y="58">: Window</text></g></g><g transform="translate(-22,2) scale(1,1)"><path fill="none" stroke="#000000" d="M 127.5 80 L 127.5 413" stroke-miterlimit="10" stroke-dasharray="3"/></g><g transform="translate(-22,2) scale(1,1)"><rect fill="#C0C0C0" stroke="none" x="223" y="47" width="117.25537109375" height="39" opacity="0.2"/></g><g transform="translate(-22,2) scale(1,1)"><rect fill="#ffffff" stroke="none" x="216" y="40" width="117.25537109375" height="39"/></g><g transform="translate(-22,2) scale(1,1)"><path fill="none" stroke="#000000" d="M 216 40 L 333.25537109375 40 L 333.25537109375 79 L 216 79 L 216 40 Z Z" stroke-miterlimit="10"/></g><g transform="translate(-22,2) scale(1,1)"><g><path fill="none" stroke="none"/><text fill="#000000" stroke="none" font-family="Arial" font-size="13px" font-style="normal" font-weight="normal" text-decoration="none" x="225.5" y="56">«html-javascript»</text></g></g><g transform="translate(-22,2) scale(1,1)"><g><path fill="none" stroke="none"/><text fill="#000000" stroke="none" font-family="Arial" font-size="13px" font-style="normal" font-weight="bold" text-decoration="none" x="229.127685546875" y="71">[emailContent]</text></g></g><g transform="translate(-22,2) scale(1,1)"><path fill="none" stroke="#000000" d="M 275.5 80 L 275.5 358" stroke-miterlimit="10" stroke-dasharray="3"/></g><g transform="translate(-22,2) scale(1,1)"><rect fill="#C0C0C0" stroke="none" x="351" y="47" width="201.76806640625" height="39" opacity="0.2"/></g><g transform="translate(-22,2) scale(1,1)"><rect fill="#ffffff" stroke="none" x="344" y="40" width="201.76806640625" height="39"/></g><g transform="translate(-22,2) scale(1,1)"><path fill="none" stroke="#000000" d="M 344 40 L 545.76806640625 40 L 545.76806640625 79 L 344 79 L 344 40 Z Z" stroke-miterlimit="10"/></g><g transform="translate(-22,2) scale(1,1)"><g><path fill="none" stroke="none"/><text fill="#000000" stroke="none" font-family="Arial" font-size="13px" font-style="normal" font-weight="normal" text-decoration="none" x="395.75634765625" y="56">«html-javascript»</text></g></g><g transform="translate(-22,2) scale(1,1)"><g><path fill="none" stroke="none"/><text fill="#000000" stroke="none" font-family="Arial" font-size="13px" font-style="normal" font-weight="bold" text-decoration="none" x="353.5" y="71">[PluckRequestBatch_Record]</text></g></g><g transform="translate(-22,2) scale(1,1)"><path fill="none" stroke="#000000" d="M 445.5 80 L 445.5 390" stroke-miterlimit="10" stroke-dasharray="3"/></g><g transform="translate(-22,2) scale(1,1)"><rect fill="#C0C0C0" stroke="none" x="559" y="211" width="118.0107421875" height="39" opacity="0.2"/></g><g transform="translate(-22,2) scale(1,1)"><rect fill="#ffffff" stroke="none" x="552" y="204" width="118.0107421875" height="39"/></g><g transform="translate(-22,2) scale(1,1)"><path fill="none" stroke="#000000" d="M 552 204 L 670.0107421875 204 L 670.0107421875 243 L 552 243 L 552 204 Z Z" stroke-miterlimit="10"/></g><g transform="translate(-22,2) scale(1,1)"><g><path fill="none" stroke="none"/><text fill="#000000" stroke="none" font-family="Arial" font-size="13px" font-style="normal" font-weight="normal" text-decoration="none" x="561.5" y="220">«asynchronous »</text></g></g><g transform="translate(-22,2) scale(1,1)"><g><path fill="none" stroke="none"/><text fill="#000000" stroke="none" font-family="Arial" font-size="13px" font-style="normal" font-weight="bold" text-decoration="none" x="588.969482421875" y="235">: Proxy</text></g></g><g transform="translate(-22,2) scale(1,1)"><path fill="none" stroke="#000000" d="M 612.5 244 L 612.5 413" stroke-miterlimit="10" stroke-dasharray="3"/></g><g transform="translate(-22,2) scale(1,1)"><rect fill="#C0C0C0" stroke="none" x="743" y="47" width="290.6416015625" height="39" opacity="0.2"/></g><g transform="translate(-22,2) scale(1,1)"><rect fill="#ffffff" stroke="none" x="736" y="40" width="290.6416015625" height="39"/></g><g transform="translate(-22,2) scale(1,1)"><path fill="none" stroke="#000000" d="M 736 40 L 1026.6416015625 40 L 1026.6416015625 79 L 736 79 L 736 40 Z Z" stroke-miterlimit="10"/></g><g transform="translate(-22,2) scale(1,1)"><g><path fill="none" stroke="none"/><text fill="#000000" stroke="none" font-family="Arial" font-size="13px" font-style="normal" font-weight="normal" text-decoration="none" x="853.502197265625" y="56">«service»</text></g></g><g transform="translate(-22,2) scale(1,1)"><g><path fill="none" stroke="none"/><text fill="#000000" stroke="none" font-family="Arial" font-size="13px" font-style="normal" font-weight="bold" text-decoration="none" x="745.5" y="71">[PluckService_ContentManagementSystem]</text></g></g><g transform="translate(-22,2) scale(1,1)"><path fill="none" stroke="#000000" d="M 882.5 80 L 882.5 383" stroke-miterlimit="10" stroke-dasharray="3"/></g><g transform="translate(-22,2) scale(1,1)"><path fill="#000000" stroke="none" d="M 32 159.5 C 32 155.6340064 35.1340064 152.5 39 152.5 C 42.8659936 152.5 46 155.6340064 46 159.5 C 46 163.3659936 42.8659936 166.5 39 166.5 C 35.1340064 166.5 32 163.3659936 32 159.5 Z"/></g><g transform="translate(-22,2) scale(1,1)"><path fill="none" stroke="#000000" d="M 104 288 L 117 288" stroke-miterlimit="10"/></g><g transform="translate(-22,2) scale(1,1)"><path fill="none" stroke="#000000" d="M 104 328 L 117 328" stroke-miterlimit="10"/></g><g transform="translate(-22,2) scale(1,1)"><path fill="none" stroke="#000000" d="M 111 288 L 111 328" stroke-miterlimit="10"/></g><g transform="translate(-22,2) scale(1,1)"><path fill="none" stroke="#000000" d="M 111 288 L 107 296" stroke-miterlimit="10"/></g><g transform="translate(-22,2) scale(1,1)"><path fill="none" stroke="#000000" d="M 111 288 L 115 296" stroke-miterlimit="10"/></g><g transform="translate(-22,2) scale(1,1)"><path fill="none" stroke="#000000" d="M 111 328 L 107 320" stroke-miterlimit="10"/></g><g transform="translate(-22,2) scale(1,1)"><path fill="none" stroke="#000000" d="M 111 328 L 115 320" stroke-miterlimit="10"/></g><g transform="translate(-22,2) scale(1,1)"><g><path fill="none" stroke="none"/><text fill="#000000" stroke="none" font-family="Arial" font-size="13px" font-style="normal" font-weight="normal" text-decoration="none" x="39.293212890625" y="297.5">{min..max}</text></g></g><g transform="translate(-22,2) scale(1,1)"><rect fill="#ffffff" stroke="none" x="112" y="400" width="167" height="31"/></g><g transform="translate(-22,2) scale(1,1)"><path fill="none" stroke="#000000" d="M 112 400 L 279 400 L 279 431 L 112 431 L 112 400 Z Z" stroke-miterlimit="10"/></g><g transform="translate(-22,2) scale(1,1)"><path fill="none" stroke="#000000" d="M 144.39453125 400 L 144.39453125 431" stroke-miterlimit="10"/></g><g transform="translate(-22,2) scale(1,1)"><g><path fill="none" stroke="none"/><text fill="#000000" stroke="none" font-family="Arial" font-size="13px" font-style="normal" font-weight="normal" text-decoration="none" x="148.89453125" y="416">https://24k.id/</text></g></g><g transform="translate(-22,2) scale(1,1)"><g><path fill="none" stroke="none"/><text fill="#000000" stroke="none" font-family="Arial" font-size="13px" font-style="normal" font-weight="bold" text-decoration="none" x="117" y="416">link</text></g></g><g transform="translate(-22,2) scale(1,1)"><g><path fill="none" stroke="none"/><text fill="#000000" stroke="none" font-family="Arial" font-size="20px" font-style="normal" font-weight="normal" text-decoration="none" x="93" y="28">24k.id - SENDING EMAIL (TYPE: UML SEQUENCE DIAGRAM)</text></g></g><g transform="translate(-22,2) scale(1,1)"><path fill="none" stroke="#000000" d="M 46 160 L 120 160" stroke-miterlimit="10"/></g><g transform="translate(-22,2) scale(1,1)"><path fill="#000000" stroke="none" d="M 109.83732514237585 164.209517756016 L 120 160 L 109.83732514237585 155.790482243984"/></g><g transform="translate(-22,2) scale(1,1)"><path fill="none" stroke="#000000" d="M 109.83732514237585 164.209517756016 L 120 160 L 109.83732514237585 155.790482243984 L 109.83732514237585 164.209517756016" stroke-miterlimit="10"/></g><g transform="translate(-22,2) scale(1,1)"><g><path fill="none" stroke="none"/><text fill="#000000" stroke="none" font-family="Arial" font-size="13px" font-style="normal" font-weight="normal" text-decoration="none" x="52.53271484375" y="155">Message1</text></g></g><g transform="translate(-22,2) scale(1,1)"><rect fill="#ffffff" stroke="none" x="120" y="160" width="13" height="128"/></g><g transform="translate(-22,2) scale(1,1)"><path fill="none" stroke="#000000" d="M 120 160 L 133 160 L 133 288 L 120 288 L 120 160 Z Z" stroke-miterlimit="10"/></g><g transform="translate(-22,2) scale(1,1)"><path fill="none" stroke="#000000" d="M 133 186 L 268 186" stroke-miterlimit="10"/></g><g transform="translate(-22,2) scale(1,1)"><path fill="#000000" stroke="none" d="M 257.83732514237585 190.209517756016 L 268 186 L 257.83732514237585 181.790482243984"/></g><g transform="translate(-22,2) scale(1,1)"><path fill="none" stroke="#000000" d="M 257.83732514237585 190.209517756016 L 268 186 L 257.83732514237585 181.790482243984 L 257.83732514237585 190.209517756016" stroke-miterlimit="10"/></g><g transform="translate(-22,2) scale(1,1)"><g><path fill="none" stroke="none"/><text fill="#000000" stroke="none" font-family="Arial" font-size="13px" font-style="normal" font-weight="normal" text-decoration="none" x="168.30908203125" y="181">post_email</text></g></g><g transform="translate(-22,2) scale(1,1)"><rect fill="#ffffff" stroke="none" x="268" y="186" width="13" height="102"/></g><g transform="translate(-22,2) scale(1,1)"><path fill="none" stroke="#000000" d="M 268 186 L 281 186 L 281 288 L 268 288 L 268 186 Z Z" stroke-miterlimit="10"/></g><g transform="translate(-22,2) scale(1,1)"><path fill="none" stroke="#000000" d="M 281 200 L 438 200" stroke-miterlimit="10"/></g><g transform="translate(-22,2) scale(1,1)"><path fill="#000000" stroke="none" d="M 427.83732514237585 204.209517756016 L 438 200 L 427.83732514237585 195.790482243984"/></g><g transform="translate(-22,2) scale(1,1)"><path fill="none" stroke="#000000" d="M 427.83732514237585 204.209517756016 L 438 200 L 427.83732514237585 195.790482243984 L 427.83732514237585 204.209517756016" stroke-miterlimit="10"/></g><g transform="translate(-22,2) scale(1,1)"><g><path fill="none" stroke="none"/><text fill="#000000" stroke="none" font-family="Arial" font-size="13px" font-style="normal" font-weight="normal" text-decoration="none" x="325.5390625" y="186">beginEmail</text></g></g><g transform="translate(-22,2) scale(1,1)"><rect fill="#ffffff" stroke="none" x="438" y="200" width="13" height="80"/></g><g transform="translate(-22,2) scale(1,1)"><path fill="none" stroke="#000000" d="M 438 200 L 451 200 L 451 280 L 438 280 L 438 200 Z Z" stroke-miterlimit="10"/></g><g transform="translate(-22,2) scale(1,1)"><path fill="none" stroke="#000000" d="M 451 224 L 552 224" stroke-miterlimit="10" stroke-dasharray="3"/></g><g transform="translate(-22,2) scale(1,1)"><path fill="none" stroke="#000000" d="M 541.8373251423759 228.209517756016 L 552 224 L 541.8373251423758 219.790482243984" stroke-miterlimit="10"/></g><g transform="translate(-22,2) scale(1,1)"><g><path fill="none" stroke="none"/><text fill="#000000" stroke="none" font-family="Arial" font-size="13px" font-style="normal" font-weight="normal" text-decoration="none" x="470.46656036376953" y="209.5">«create»</text></g></g><g transform="translate(-22,2) scale(1,1)"><path fill="none" stroke="#000000" d="M 451 263 L 605 263" stroke-miterlimit="10"/></g><g transform="translate(-22,2) scale(1,1)"><path fill="none" stroke="#000000" d="M 594.8373251423759 267.209517756016 L 605 263 L 594.8373251423758 258.790482243984" stroke-miterlimit="10"/></g><g transform="translate(-22,2) scale(1,1)"><g><path fill="none" stroke="none"/><text fill="#000000" stroke="none" font-family="Arial" font-size="13px" font-style="normal" font-weight="normal" text-decoration="none" x="476.5" y="258">«asynchronous »</text></g></g><g transform="translate(-22,2) scale(1,1)"><rect fill="#ffffff" stroke="none" x="605" y="263" width="13" height="73"/></g><g transform="translate(-22,2) scale(1,1)"><path fill="none" stroke="#000000" d="M 605 263 L 618 263 L 618 336 L 605 336 L 605 263 Z Z" stroke-miterlimit="10"/></g><g transform="translate(-22,2) scale(1,1)"><path fill="none" stroke="#000000" d="M 438 272 L 281 272" stroke-miterlimit="10" stroke-dasharray="3"/></g><g transform="translate(-22,2) scale(1,1)"><path fill="none" stroke="#000000" d="M 291.16267485762415 267.790482243984 L 281 272 L 291.16267485762415 276.209517756016" stroke-miterlimit="10"/></g><g transform="translate(-22,2) scale(1,1)"><path fill="none" stroke="#000000" d="M 268 278 L 133 278" stroke-miterlimit="10" stroke-dasharray="3"/></g><g transform="translate(-22,2) scale(1,1)"><path fill="none" stroke="#000000" d="M 143.16267485762415 273.790482243984 L 133 278 L 143.16267485762415 282.209517756016" stroke-miterlimit="10"/></g><g transform="translate(-22,2) scale(1,1)"><path fill="none" stroke="#000000" d="M 618 280 L 875 280" stroke-miterlimit="10"/></g><g transform="translate(-22,2) scale(1,1)"><path fill="#000000" stroke="none" d="M 864.8373251423759 284.209517756016 L 875 280 L 864.8373251423758 275.790482243984"/></g><g transform="translate(-22,2) scale(1,1)"><path fill="none" stroke="#000000" d="M 864.8373251423759 284.209517756016 L 875 280 L 864.8373251423758 275.790482243984 L 864.8373251423759 284.209517756016" stroke-miterlimit="10"/></g><g transform="translate(-22,2) scale(1,1)"><g><path fill="none" stroke="none"/><text fill="#000000" stroke="none" font-family="Arial" font-size="13px" font-style="normal" font-weight="normal" text-decoration="none" x="713.13818359375" y="266">post_email</text></g></g><g transform="translate(-22,2) scale(1,1)"><rect fill="#ffffff" stroke="none" x="875" y="280" width="13" height="32"/></g><g transform="translate(-22,2) scale(1,1)"><path fill="none" stroke="#000000" d="M 875 280 L 888 280 L 888 312 L 875 312 L 875 280 Z Z" stroke-miterlimit="10"/></g><g transform="translate(-22,2) scale(1,1)"><path fill="none" stroke="#000000" d="M 875 309 L 618 309" stroke-miterlimit="10" stroke-dasharray="3"/></g><g transform="translate(-22,2) scale(1,1)"><path fill="none" stroke="#000000" d="M 628.1626748576241 304.790482243984 L 618 309 L 628.1626748576241 313.209517756016" stroke-miterlimit="10"/></g><g transform="translate(-22,2) scale(1,1)"><g><path fill="none" stroke="none"/><text fill="#000000" stroke="none" font-family="Arial" font-size="13px" font-style="normal" font-weight="normal" text-decoration="none" x="621.6708984375" y="328">«lightweightDataInterchangeFormat-json»</text></g></g><g transform="translate(-22,2) scale(1,1)"><path fill="none" stroke="#000000" d="M 605 328 L 133 328" stroke-miterlimit="10"/></g><g transform="translate(-22,2) scale(1,1)"><path fill="#000000" stroke="none" d="M 143.16267485762415 323.790482243984 L 133 328 L 143.16267485762415 332.209517756016"/></g><g transform="translate(-22,2) scale(1,1)"><path fill="none" stroke="#000000" d="M 143.16267485762415 323.790482243984 L 133 328 L 143.16267485762415 332.209517756016 L 143.16267485762415 323.790482243984" stroke-miterlimit="10"/></g><g transform="translate(-22,2) scale(1,1)"><g><path fill="none" stroke="none"/><text fill="#000000" stroke="none" font-family="Arial" font-size="13px" font-style="normal" font-weight="normal" text-decoration="none" x="337.6183166503906" y="358">«callback»</text></g></g><g transform="translate(-22,2) scale(1,1)"><rect fill="#ffffff" stroke="none" x="120" y="328" width="13" height="28"/></g><g transform="translate(-22,2) scale(1,1)"><path fill="none" stroke="#000000" d="M 120 328 L 133 328 L 133 356 L 120 356 L 120 328 Z Z" stroke-miterlimit="10"/></g></g></svg>